<svg xmlns="http://www.w3.org/2000/svg" viewBox="0 0 1626.13 1172.5"><defs><style>.cls-1{fill:#7cb342;}</style></defs><g id="Layer_1" data-name="Layer 1"><path class="cls-1" d="M206.5,772.5a691.39,691.39,0,0,0,17,197c13.75,58.66,33,140.63,93,215,86.19,106.78,207,136.53,282,155,136.57,33.64,247.51,15.45,336,0,80.45-14,210-36.65,341-122,203.75-132.72,284.68-334.78,313-420,24,4.29,62.67,7.2,105-8,69.37-24.91,103.28-82.2,115-102a253.5,253.5,0,0,0,23-51,251.32,251.32,0,0,0-59-31c-64-23.34-121.59-14.54-150-8a266,266,0,0,0-141-189,297.18,297.18,0,0,0-42,70c-7.75,18.21-22.16,53-23,99-1.08,59,20.74,104.25,34,127a207.32,207.32,0,0,1-48,25,215.19,215.19,0,0,1-87,12c-56.15-3-478.25-3.12-1061-3-2.89-.31-21.27-2-35.5,11.5A43.76,43.76,0,0,0,206.5,772.5Z" transform="translate(-205.37 -186)"/><rect class="cls-1" x="337.13" y="183.5" width="170" height="153" rx="14.2"/><rect class="cls-1" x="140.63" y="368" width="170" height="153" rx="14.2"/><rect class="cls-1" x="336.63" y="368" width="170" height="153" rx="14.2"/><rect class="cls-1" x="737.28" y="183.68" width="170" height="153" rx="14.2"/><rect class="cls-1" x="540.78" y="368.18" width="170" height="153" rx="14.2"/><rect class="cls-1" x="736.78" y="368.18" width="170" height="153" rx="14.2"/><rect class="cls-1" x="540.63" y="184" width="170" height="153" rx="14.2"/></g><g id="Layer_2" data-name="Layer 2"><rect class="cls-1" x="938.63" y="368" width="170" height="153" rx="14.2"/><rect class="cls-1" x="736.63" width="170" height="153" rx="14.2"/></g></svg>