<svg xmlns="http://www.w3.org/2000/svg" viewBox="0 0 2000 2000"><defs><style>.cls-1{fill:#03a9f4;}.cls-2{fill:#8bc34a;}.cls-3{fill:none;stroke:#7cb342;stroke-miterlimit:10;stroke-width:2px;}.cls-4{fill:#0e90d8;}.cls-5{fill:#7cb342;}</style></defs><g id="Background"><rect class="cls-1" width="2000" height="1000"/><rect class="cls-2" y="1000" width="2000" height="1000"/></g><g id="Layer_2" data-name="Layer 2"><path class="cls-3" d="M316.66,2000c-3.18-6.56-6.65-13.95-10.33-22.1q-3.09-6.84-6.34-14.4c-9.58-22.3-20.04-49.18-29.89-79.9-33.11-103.31-81.71-237.26-18-324.96.13-.18.26-.36.4-.54v-.01c34.32-46.81,67.69-36.28,98.6-89.71q2.52-4.35,4.77-8.86c17.08-33.94,23.74-74.5,23.02-115.69-1.34-77.21-28.58-156.69-61.83-199.18-.31-.41-.64-.82-.96-1.23-1.33-1.67-3.21-3.96-5.47-6.87-.56-.72-1.14-1.47-1.74-2.27-2.74-3.62-5.89-8.02-9.18-13.18a186.609,186.609,0,0,1-19.61-40.86c-11-32.69-10.59-62.11-9-80.24"/><path class="cls-3" d="M303.28,2000q1.725-11.25,3.05-22.1,1.6-13.005,2.69-25.41a668.011,668.011,0,0,0-2.52-143.99c-13.87-108.9-51-182.17-54-250.41-1.23-27.68,3.16-54.53,17-82.59,12.48-25.32,28.65-48.31,43.87-67.08,24.8-30.56,47.13-49.92,47.13-49.92,6.55-5.66,12.62-10.42,18.39-14.67,21.77-16.08,39.19-24.98,61.61-48.33a367.974,367.974,0,0,0,48.17-62.39q3.39-5.52,6.39-10.82,2.115-3.7,4.03-7.28,1.14-2.085,2.19-4.12,1.1-2.085,2.12-4.11c.8-1.56,1.56-3.1,2.3-4.62.59-1.2,1.16-2.38,1.72-3.54q1.44-3.015,2.74-5.88c.07-.16.14-.31.22-.47q1.1-2.445,2.12-4.77"/><path class="cls-3" d="M271.81,2000c8.32-12.13,17.96-24.04,28.18-36.5q4.455-5.43,9.03-11.01c11.03-13.51,22.48-27.87,33.48-43.99,0,0,34.17-50.07,58.12-124.61,1.65-5.14,3.26-10.4,4.79-15.76,10.39-36.16,17.9-77.23,18.09-120.63.31-70.31-28.26-133.85-67.63-187.98a534.268,534.268,0,0,0-42.5-51.1c-48.84-52.09-103.39-91.79-139.84-115.59-.5-.34-1-.66-1.5-.98-2.03-1.33-3.99-2.59-5.9-3.81q-3.48-2.22-6.68-4.22c-1.14-.71-2.25-1.4-3.33-2.06-4.51-2.79-8.49-5.18-11.85-7.17-3.28-1.94-5.98-3.5-8.02-4.66-.26-.15-.51-.29-.75-.43"/><path class="cls-3" d="M448.2,1398.907c-16.339,33.188-32.975,79.158-36,135a333.075,333.075,0,0,0,0,36"/><path class="cls-3" d="M787.91,2000c-19.49-6.02-44.56-15.99-69.01-32.95l-.01-.01a202.284,202.284,0,0,1-42.59-39.46c-21.34-26.55-46.09-71.59-45.31-185.35.02-3.31.06-6.67.14-10.1,0-.64.02-1.28.03-1.92.06-2.56.12-5.1.2-7.62.05-1.59.1-3.16.17-4.73.08-2.53.19-5.03.31-7.5v-.01q.15-3.4.33-6.73c2.69-49.08,9.57-88.66,17.81-122.36l.01-.01c24.55-100.42,61.24-148.54,35.34-239.76-17.2-60.55-39.97-62.6-72.22-161.3A785.394,785.394,0,0,1,577.01,1000c0-.05-.01-.1-.01-.15"/><path class="cls-3" d="M723.35,2000c-27.13-5.25-62.5-17.03-92.35-44.82-79.12-73.67-64.54-208.88-36-288.35a230.3,230.3,0,0,1,14.88-33.71c11.56-20.97,24.14-33.67,40.1-51.86,18.17-20.69,40.69-48.49,71.02-103.67,61.7-112.23,44.66-135.73,99-198.24a325.465,325.465,0,0,1,25.17-26c42.67-39.33,75.51-47.29,109.83-100.16,35.35-54.45,43.61-112.38,45-153.19"/><path class="cls-3" d="M758.86,2000a331.563,331.563,0,0,1-39.97-32.96c-31.88-30.95-62.47-74.27-70.39-130.54-13.93-99.05,50.33-181.7,63-198,48.57-62.48,87.03-58.36,126-126a264.389,264.389,0,0,0,24.14-56.17c1.33-4.43,2.51-8.79,3.56-13.05.21-.8.4-1.59.59-2.38.73-3.07,1.39-6.09,1.99-9.04a284.281,284.281,0,0,0,5.72-54.36c.39-50.25-13.13-92.5-28.33-124.15a306.009,306.009,0,0,0-15.78-28.79c-2.2-3.55-4.35-6.85-6.4-9.89h-.01a1.923,1.923,0,0,0-.17-.26c-2.81-4.16-5.44-7.83-7.79-10.99-.95-1.27-1.85-2.47-2.69-3.57-.65-.83-1.25-1.62-1.83-2.35"/><path class="cls-3" d="M520.082,1543.159c4.025,13.7,19.331,59.487,63,81a106.154,106.154,0,0,0,27,9"/><path class="cls-3" d="M1308.06,2000c-6.16-9.1-12.87-18.81-20.07-29-85.68-121.17-126.53-146.48-158.24-200.53q-2.82-4.815-5.57-9.97c-2.43-4.59-4.82-9.4-7.19-14.5-44.37-95.71-31.7-189.96-27-225,5.36-39.88,14.9-68.64,26.88-95.7,12.19-27.54,26.91-53.33,42.33-87.33q2.7-5.94,5.42-12.24c5.1-11.79,10.24-24.59,15.37-38.73a736.063,736.063,0,0,0,36.32-145.25q1.17-8.025,2.22-16.34a872,872,0,0,0,6.46-125.41"/><path class="cls-3" d="M1017.438,1184c17.98,15.837,87.953,81.166,99,189,7.343,71.689-14.9,127.588-27,153"/><path class="cls-3" d="M1320.64,2000c-27.47-35.34-69.23-99.33-87.14-188.61-17.89-89.2-3.14-159.55,9-217.42a717.426,717.426,0,0,1,72.72-196.47q2.25-4.11,4.59-8.27c.39-.72.8-1.43,1.21-2.15,1.11-1.96,2.23-3.93,3.38-5.9.96-1.68,1.95-3.36,2.94-5.05.59-1.01,1.19-2.02,1.81-3.04v-.01c.75-1.26,1.5-2.52,2.27-3.79.36-.59.72-1.19,1.08-1.79"/><path class="cls-3" d="M1434.11,2000c13.89-57.21,24.44-137.34,4.89-227-2.7-12.37-5.73-23.81-8.96-34.48q-2.025-6.69-4.15-12.98c-25.46-75.66-59.68-111.89-49.89-177.54a154.982,154.982,0,0,1,4.86-21.87c7.77-25.68,21.62-45.47,39.06-64.37a1.92,1.92,0,0,0,.14-.15c27.62-29.87,64.2-57.51,99.94-102.61a430.7,430.7,0,0,0,26.35-37.12c43.28-68.29,80.82-169.35,81.65-321.88"/><path class="cls-3" d="M1555.191,1070.5a579.771,579.771,0,0,1-9,252"/><path class="cls-3" d="M1660.733,1212.092c1.092,10.646,7.987,91.474-54,153-30.269,30.044-74.951,15.988-135,54a273.313,273.313,0,0,0-54,45"/><path class="cls-3" d="M1425.869,1220.184a518.466,518.466,0,0,0-45,306"/><path class="cls-3" d="M1724.3,2000c16.24-11.54,34.14-25.11,52.25-40.59,3.11-2.68,6.25-5.41,9.38-8.2v-.01c6.22-5.54,12.43-11.31,18.57-17.3q5.925-5.76,11.75-11.81c9.91-10.29,19.55-21.18,28.65-32.64,19.15-24.08,35.91-50.66,47.89-79.6a242.706,242.706,0,0,0,12.45-38.52c.84-3.66,1.56-7.26,2.19-10.81.13-.7.26-1.4.36-2.1q.72-4.2,1.24-8.31c.67-5.24,1.13-10.35,1.41-15.38v-.01c3.58-61.28-18.19-107.9,5.06-172.25q2.985-8.28,7.03-16.98c12.74-27.35,35.17-60.96,77.47-98.78"/><path class="cls-3" d="M1819.07,2000c-16.12-57.54-21.13-107.02-21.22-147.11v-.01a484.984,484.984,0,0,1,2.65-51.82c.36-3.42.75-6.8,1.19-10.16q.93-7.485,2.09-14.78c5.38-34.45,13.88-65.98,23-95.41.53-1.7,1.05-3.38,1.58-5.06,3.08-9.77,6.21-19.32,9.3-28.66v-.01c25.31-76.51,47.99-139.75,16.84-206.8-5.68-12.24-9.41-16.52-13.77-22.43-3.53-4.78-7.48-10.64-13.23-22.68-30.63-64.14-29.98-131.38-19.91-187.67q.975-5.415,2.05-10.7c.27-1.32.55-2.64.83-3.95.65-3.03,1.32-6.03,2.01-8.98.24-1.05.49-2.09.74-3.13q.6-2.52,1.23-4.99c.1-.42.21-.84.32-1.25.28-1.14.57-2.28.87-3.4.38-1.45.76-2.89,1.15-4.31q.84-3.135,1.71-6.19"/><rect class="cls-4" y="279" width="648" height="2"/><rect class="cls-4" y="288" width="792" height="2"/><rect class="cls-4" y="260.995" width="360" height="2"/><rect class="cls-4" y="270" width="504" height="2"/><rect class="cls-4" y="279" width="648" height="2"/><rect class="cls-4" y="288" width="792" height="2"/><rect class="cls-4" y="260.995" width="360" height="2"/><rect class="cls-4" y="270" width="504" height="2"/><rect class="cls-4" x="180" width="2" height="351" transform="translate(362 351) rotate(180)"/><rect class="cls-4" x="180" y="351" width="630" height="2" transform="translate(990 704) rotate(180)"/><rect class="cls-4" x="934" width="2" height="493"/><rect class="cls-4" x="270" y="493" width="666" height="2" transform="translate(1206 988) rotate(180)"/><rect class="cls-4" x="393" y="387" width="30" height="45"/><rect class="cls-4" x="537" y="387" width="30" height="45"/><rect class="cls-4" x="681" y="387" width="30" height="45"/><rect class="cls-4" x="825" y="387" width="30" height="45"/><rect class="cls-4" x="502" y="269.988" width="2" height="152.993"/><rect class="cls-4" x="646" y="278.987" width="2" height="144.013"/><rect class="cls-4" x="790" y="287.987" width="2" height="135.013"/><rect class="cls-4" x="358" y="260.988" width="2" height="162.012"/><rect class="cls-4" x="360" y="421" width="40" height="2" transform="translate(760 844) rotate(180)"/><rect class="cls-4" x="657" y="405" width="2" height="90" transform="translate(1316 900) rotate(180)"/><rect class="cls-4" x="657" y="405" width="40" height="2" transform="translate(1354 812) rotate(180)"/><rect class="cls-4" x="801" y="405" width="2" height="90" transform="translate(1604 900) rotate(180)"/><rect class="cls-4" x="801" y="405" width="40" height="2" transform="translate(1642 812) rotate(180)"/><rect class="cls-4" x="513" y="405" width="2" height="90" transform="translate(1028 900) rotate(180)"/><rect class="cls-4" x="513" y="405" width="40" height="2" transform="translate(1066 812) rotate(180)"/><rect class="cls-4" x="369" y="405" width="2" height="90" transform="translate(740 900) rotate(180)"/><rect class="cls-4" x="369" y="405" width="40" height="2" transform="translate(778 812) rotate(180)"/><rect class="cls-4" x="504" y="421" width="40" height="2" transform="translate(1048 844) rotate(180)"/><rect class="cls-4" x="648" y="421" width="40" height="2" transform="translate(1336 844) rotate(180)"/><rect class="cls-4" x="792" y="421" width="40" height="2" transform="translate(1624 844) rotate(180)"/><rect class="cls-4" x="270" y="495" width="2" height="505"/><rect class="cls-4" x="810" y="351" width="2" height="45"/><rect class="cls-4" x="810" y="394" width="30" height="2" transform="translate(1650 790) rotate(180)"/><rect class="cls-4" x="666" y="351" width="2" height="45"/><rect class="cls-4" x="666" y="394" width="30" height="2" transform="translate(1362 790) rotate(180)"/><rect class="cls-4" x="522" y="351" width="2" height="45"/><rect class="cls-4" x="522" y="394" width="30" height="2" transform="translate(1074 790) rotate(180)"/><rect class="cls-4" x="378" y="351" width="2" height="45"/><rect class="cls-4" x="378" y="394" width="30" height="2" transform="translate(786 790) rotate(180)"/><rect class="cls-4" x="439" y="414" width="2" height="198" transform="translate(880 1026) rotate(180)"/><rect class="cls-4" x="411" y="414" width="30" height="2" transform="translate(852 830) rotate(180)"/><rect class="cls-4" x="583" y="414" width="2" height="207" transform="translate(1168 1035) rotate(180)"/><rect class="cls-4" x="555" y="414" width="30" height="2" transform="translate(1140 830) rotate(180)"/><rect class="cls-4" x="727" y="414" width="2" height="216" transform="translate(1456 1044) rotate(180)"/><rect class="cls-4" x="699" y="414" width="30" height="2" transform="translate(1428 830) rotate(180)"/><rect class="cls-4" x="871" y="414" width="2" height="225" transform="translate(1744 1053) rotate(180)"/><rect class="cls-4" x="843" y="414" width="30" height="2" transform="translate(1716 830) rotate(180)"/><rect class="cls-4" x="441" y="610" width="774" height="2" transform="translate(1656 1222) rotate(180)"/><rect class="cls-4" x="585" y="619" width="630" height="2" transform="translate(1800 1240) rotate(180)"/><rect class="cls-4" x="729" y="628" width="486" height="2" transform="translate(1944 1258) rotate(180)"/><rect class="cls-4" x="873" y="637" width="342" height="2" transform="translate(2088 1276) rotate(180)"/><rect class="cls-4" x="1215" y="594" width="18" height="54"/><rect class="cls-4" x="1233" y="601" width="72" height="2" transform="translate(2538 1204) rotate(180)"/><rect class="cls-4" x="1305" y="126" width="2" height="720" transform="translate(2612 972) rotate(180)"/><rect class="cls-4" x="1224" y="648" width="2" height="352"/><rect class="cls-4" x="1656" width="2" height="819" transform="translate(3314 819) rotate(180)"/><rect class="cls-4" x="1539" y="114" width="63" height="30"/><rect class="cls-4" x="1593" y="97" width="63" height="2" transform="translate(3249 196) rotate(180)"/><rect class="cls-4" x="1593" y="99" width="2" height="40" transform="translate(3188 238) rotate(180)"/><rect class="cls-4" x="1539" y="258" width="63" height="30"/><rect class="cls-4" x="1593" y="241" width="63" height="2" transform="translate(3249 484) rotate(180)"/><rect class="cls-4" x="1593" y="243" width="2" height="40" transform="translate(3188 526) rotate(180)"/><rect class="cls-4" x="1539" y="402" width="63" height="30"/><rect class="cls-4" x="1593" y="385" width="63" height="2" transform="translate(3249 772) rotate(180)"/><rect class="cls-4" x="1593" y="387" width="2" height="40" transform="translate(3188 814) rotate(180)"/><rect class="cls-4" x="1539" y="546" width="63" height="30"/><rect class="cls-4" x="1593" y="529" width="63" height="2" transform="translate(3249 1060) rotate(180)"/><rect class="cls-4" x="1593" y="531" width="2" height="40" transform="translate(3188 1102) rotate(180)"/><rect class="cls-4" x="1539" y="690" width="63" height="30"/><rect class="cls-4" x="1593" y="673" width="63" height="2" transform="translate(3249 1348) rotate(180)"/><rect class="cls-4" x="1593" y="675" width="2" height="40" transform="translate(3188 1390) rotate(180)"/><rect class="cls-4" x="1539" y="834" width="63" height="30"/><rect class="cls-4" x="1593" y="817" width="63" height="2" transform="translate(3249 1636) rotate(180)"/><rect class="cls-4" x="1593" y="819" width="2" height="40" transform="translate(3188 1678) rotate(180)"/><rect class="cls-4" x="1440" y="45" width="30" height="30"/><rect class="cls-4" x="1323" width="2" height="805.5"/><rect class="cls-4" x="1332" width="2" height="811"/><rect class="cls-4" x="1323" y="84" width="243" height="2" transform="translate(2889 170) rotate(180)"/><rect class="cls-4" x="1564" y="84" width="2" height="40" transform="translate(3130 208) rotate(180)"/><rect class="cls-4" x="1458" y="62" width="2" height="40" transform="translate(2918 164) rotate(180)"/><rect class="cls-4" x="1332" y="91" width="252" height="2" transform="translate(2916 184) rotate(180)"/><rect class="cls-4" x="1582" y="93" width="2" height="40" transform="translate(3166 226) rotate(180)"/><rect class="cls-4" x="1458" y="100" width="90" height="2" transform="translate(3006 202) rotate(180)"/><rect class="cls-4" x="1548" y="100" width="2" height="34" transform="translate(3098 234) rotate(180)"/><rect class="cls-4" x="1440" y="189" width="30" height="30"/><rect class="cls-4" x="1323" y="228" width="243" height="2" transform="translate(2889 458) rotate(180)"/><rect class="cls-4" x="1564" y="228" width="2" height="40" transform="translate(3130 496) rotate(180)"/><rect class="cls-4" x="1458" y="206" width="2" height="40" transform="translate(2918 452) rotate(180)"/><rect class="cls-4" x="1332" y="235" width="252" height="2" transform="translate(2916 472) rotate(180)"/><rect class="cls-4" x="1582" y="237" width="2" height="40" transform="translate(3166 514) rotate(180)"/><rect class="cls-4" x="1458" y="244" width="90" height="2" transform="translate(3006 490) rotate(180)"/><rect class="cls-4" x="1548" y="244" width="2" height="34" transform="translate(3098 522) rotate(180)"/><rect class="cls-4" x="1440" y="333" width="30" height="30"/><rect class="cls-4" x="1323" y="372" width="243" height="2" transform="translate(2889 746) rotate(180)"/><rect class="cls-4" x="1564" y="372" width="2" height="40" transform="translate(3130 784) rotate(180)"/><rect class="cls-4" x="1458" y="350" width="2" height="40" transform="translate(2918 740) rotate(180)"/><rect class="cls-4" x="1332" y="379" width="252" height="2" transform="translate(2916 760) rotate(180)"/><rect class="cls-4" x="1582" y="381" width="2" height="40" transform="translate(3166 802) rotate(180)"/><rect class="cls-4" x="1458" y="388" width="90" height="2" transform="translate(3006 778) rotate(180)"/><rect class="cls-4" x="1548" y="388" width="2" height="34" transform="translate(3098 810) rotate(180)"/><rect class="cls-4" x="1440" y="477" width="30" height="30"/><rect class="cls-4" x="1323" y="516" width="243" height="2" transform="translate(2889 1034) rotate(180)"/><rect class="cls-4" x="1564" y="516" width="2" height="40" transform="translate(3130 1072) rotate(180)"/><rect class="cls-4" x="1458" y="494" width="2" height="40" transform="translate(2918 1028) rotate(180)"/><rect class="cls-4" x="1332" y="523" width="252" height="2" transform="translate(2916 1048) rotate(180)"/><rect class="cls-4" x="1582" y="525" width="2" height="40" transform="translate(3166 1090) rotate(180)"/><rect class="cls-4" x="1458" y="532" width="90" height="2" transform="translate(3006 1066) rotate(180)"/><rect class="cls-4" x="1548" y="532" width="2" height="34" transform="translate(3098 1098) rotate(180)"/><rect class="cls-4" x="1440" y="622" width="30" height="30"/><rect class="cls-4" x="1323" y="661" width="243" height="2" transform="translate(2889 1324) rotate(180)"/><rect class="cls-4" x="1564" y="661" width="2" height="40" transform="translate(3130 1362) rotate(180)"/><rect class="cls-4" x="1458" y="639" width="2" height="40" transform="translate(2918 1318) rotate(180)"/><rect class="cls-4" x="1332" y="668" width="252" height="2" transform="translate(2916 1338) rotate(180)"/><rect class="cls-4" x="1582" y="670" width="2" height="40" transform="translate(3166 1380) rotate(180)"/><rect class="cls-4" x="1458" y="677" width="90" height="2" transform="translate(3006 1356) rotate(180)"/><rect class="cls-4" x="1548" y="677" width="2" height="34" transform="translate(3098 1388) rotate(180)"/><rect class="cls-4" x="1440" y="765" width="30" height="30"/><rect class="cls-4" x="1323" y="804" width="243" height="2" transform="translate(2889 1610) rotate(180)"/><rect class="cls-4" x="1564" y="804" width="2" height="40" transform="translate(3130 1648) rotate(180)"/><rect class="cls-4" x="1458" y="782" width="2" height="40" transform="translate(2918 1604) rotate(180)"/><rect class="cls-4" x="1332" y="811" width="252" height="2" transform="translate(2916 1624) rotate(180)"/><rect class="cls-4" x="1582" y="813" width="2" height="40" transform="translate(3166 1666) rotate(180)"/><rect class="cls-4" x="1458" y="820" width="90" height="2" transform="translate(3006 1642) rotate(180)"/><rect class="cls-4" x="1548" y="820" width="2" height="34" transform="translate(3098 1674) rotate(180)"/><rect class="cls-4" x="1305" y="126" width="243" height="2" transform="translate(2853 254) rotate(180)"/><rect class="cls-4" x="1305" y="270" width="243" height="2" transform="translate(2853 542) rotate(180)"/><rect class="cls-4" x="1305" y="414" width="243" height="2" transform="translate(2853 830) rotate(180)"/><rect class="cls-4" x="1305" y="558" width="243" height="2" transform="translate(2853 1118) rotate(180)"/><rect class="cls-4" x="1305" y="702" width="243" height="2" transform="translate(2853 1406) rotate(180)"/><rect class="cls-4" x="1305" y="846" width="252" height="2" transform="translate(2862 1694) rotate(180)"/><rect class="cls-4" x="1447" y="702" width="2" height="72" transform="translate(2896 1476) rotate(180)"/><rect class="cls-4" x="1564" y="720" width="2" height="27" transform="translate(3130 1467) rotate(180)"/><rect class="cls-4" x="1458" y="747" width="108" height="2" transform="translate(3024 1496) rotate(180)"/><rect class="cls-4" x="1458" y="747" width="2" height="36" transform="translate(2918 1530) rotate(180)"/><rect class="cls-4" x="1447" y="558" width="2" height="72" transform="translate(2896 1188) rotate(180)"/><rect class="cls-4" x="1564" y="576" width="2" height="27" transform="translate(3130 1179) rotate(180)"/><rect class="cls-4" x="1458" y="603" width="108" height="2" transform="translate(3024 1208) rotate(180)"/><rect class="cls-4" x="1458" y="603" width="2" height="36" transform="translate(2918 1242) rotate(180)"/><rect class="cls-4" x="1447" y="414" width="2" height="72" transform="translate(2896 900) rotate(180)"/><rect class="cls-4" x="1564" y="432" width="2" height="27" transform="translate(3130 891) rotate(180)"/><rect class="cls-4" x="1458" y="459" width="108" height="2" transform="translate(3024 920) rotate(180)"/><rect class="cls-4" x="1458" y="459" width="2" height="36" transform="translate(2918 954) rotate(180)"/><rect class="cls-4" x="1447" y="270" width="2" height="72" transform="translate(2896 612) rotate(180)"/><rect class="cls-4" x="1564" y="288" width="2" height="27" transform="translate(3130 603) rotate(180)"/><rect class="cls-4" x="1458" y="315" width="108" height="2" transform="translate(3024 632) rotate(180)"/><rect class="cls-4" x="1458" y="315" width="2" height="36" transform="translate(2918 666) rotate(180)"/><rect class="cls-4" x="1447" y="126" width="2" height="72" transform="translate(2896 324) rotate(180)"/><rect class="cls-4" x="1564" y="144" width="2" height="27" transform="translate(3130 315) rotate(180)"/><rect class="cls-4" x="1458" y="171" width="108" height="2" transform="translate(3024 344) rotate(180)"/><rect class="cls-4" x="1458" y="171" width="2" height="36" transform="translate(2918 378) rotate(180)"/><rect class="cls-4" x="1447" width="2" height="54"/><rect class="cls-4" x="1564" width="2" height="27" transform="translate(3130 27) rotate(180)"/><rect class="cls-4" x="1458" y="27" width="108" height="2" transform="translate(3024 56) rotate(180)"/><rect class="cls-4" x="1458" y="27" width="2" height="36" transform="translate(2918 90) rotate(180)"/><rect class="cls-4" x="943" width="2" height="504" transform="translate(1888 504) rotate(180)"/><rect class="cls-4" x="952" width="2" height="513" transform="translate(1906 513) rotate(180)"/><rect class="cls-4" x="961" width="2" height="522" transform="translate(1924 522) rotate(180)"/><rect class="cls-4" x="970" width="2" height="531" transform="translate(1942 531) rotate(180)"/><rect class="cls-4" y="502" width="945" height="2" transform="translate(945 1006) rotate(180)"/><rect class="cls-4" x="90" y="511" width="864" height="2" transform="translate(1044 1024) rotate(180)"/><rect class="cls-4" x="90" y="522" width="873" height="2" transform="translate(1053 1046) rotate(180)"/><rect class="cls-4" x="90" y="531" width="882" height="2" transform="translate(1062 1064) rotate(180)"/><rect class="cls-4" x="1314" width="2" height="891" transform="translate(2630 891) rotate(180)"/><rect class="cls-4" x="1314" y="891" width="252" height="2" transform="translate(2880 1784) rotate(180)"/><rect class="cls-4" x="1564" y="864" width="2" height="27" transform="translate(3130 1755) rotate(180)"/><rect class="cls-4" x="1656" y="502" width="344" height="2" transform="translate(3656 1006) rotate(180)"/><rect class="cls-4" x="1721" y="889" width="232" height="2"/><rect class="cls-4" x="1710" y="880" width="234" height="2"/><rect class="cls-4" x="1701" y="871" width="252" height="2"/><rect class="cls-4" x="1692" y="862" width="258.744" height="2"/><rect class="cls-4" x="1683" y="853" width="317" height="2"/><rect class="cls-4" x="1683" y="360" width="2" height="493" transform="matrix(-1, 0, 0, -1, 3368, 1213)"/><rect class="cls-4" x="1692" y="360" width="2" height="504" transform="matrix(-1, 0, 0, -1, 3386, 1224)"/><rect class="cls-4" x="1701" y="360" width="2" height="513" transform="matrix(-1, 0, 0, -1, 3404, 1233)"/><rect class="cls-4" x="1710" y="360" width="2" height="522" transform="matrix(-1, 0, 0, -1, 3422, 1242)"/><rect class="cls-4" x="1719" y="360" width="2" height="531" transform="matrix(-1, 0, 0, -1, 3440, 1251)"/><rect class="cls-4" x="1683" width="2" height="441"/><rect class="cls-4" x="1692" width="2" height="477"/><rect class="cls-4" x="1701" width="2" height="486"/><rect class="cls-4" x="1710" width="2" height="470"/><rect class="cls-4" x="1719" width="2" height="479"/><rect class="cls-4" x="981" y="234" width="2" height="504" transform="translate(1964 972) rotate(180)"/><rect class="cls-4" x="990" y="234" width="2" height="504" transform="translate(1982 972) rotate(180)"/><rect class="cls-4" x="999" y="225" width="2" height="513" transform="translate(2000 963) rotate(180)"/><rect class="cls-4" x="1008" y="216" width="2" height="522" transform="translate(2018 954) rotate(180)"/><rect class="cls-4" x="1017" y="207" width="2" height="531" transform="translate(2036 945) rotate(180)"/><rect class="cls-4" x="1062" y="891" width="252" height="2" transform="translate(2376 1784) rotate(180)"/><rect class="cls-4" x="1062" y="745" width="2" height="146" transform="translate(2126 1636) rotate(180)"/><rect class="cls-4" x="972" y="738" width="54" height="18"/><rect class="cls-4" x="1022" y="745" width="40" height="2" transform="translate(2084 1492) rotate(180)"/><rect class="cls-4" x="981" width="2" height="394"/><rect class="cls-4" x="990" width="2" height="367"/><rect class="cls-4" x="999" width="2" height="403"/><rect class="cls-4" x="1008" width="2" height="376"/><rect class="cls-4" x="1017" width="2" height="432"/><rect class="cls-4" x="999" y="751" width="2" height="249"/><rect class="cls-4" x="1566" y="934" width="63" height="2" transform="translate(3195 1870) rotate(180)"/><rect class="cls-4" x="1564" y="891" width="2" height="45" transform="translate(3130 1827) rotate(180)"/><rect class="cls-4" x="1627" y="936" width="2" height="64"/><rect class="cls-4" x="133" y="828" width="443" height="2" transform="translate(709 1658) rotate(180)"/><rect class="cls-4" x="133" y="333" width="2" height="495" transform="matrix(-1, 0, 0, -1, 268, 1161)"/><rect class="cls-4" x="142" y="333" width="2" height="504" transform="matrix(-1, 0, 0, -1, 286, 1170)"/><rect class="cls-4" x="151" y="333" width="2" height="513" transform="matrix(-1, 0, 0, -1, 304, 1179)"/><rect class="cls-4" x="160" y="333" width="2" height="522" transform="matrix(-1, 0, 0, -1, 322, 1188)"/><rect class="cls-4" x="169" y="333" width="2" height="531" transform="matrix(-1, 0, 0, -1, 340, 1197)"/><rect class="cls-4" x="133" width="2" height="414"/><rect class="cls-4" x="142" width="2" height="450"/><rect class="cls-4" x="151" width="2" height="459"/><rect class="cls-4" x="160" width="2" height="443"/><rect class="cls-4" x="169" width="2" height="452"/><rect class="cls-4" x="142" y="837" width="920" height="2" transform="translate(1204 1676) rotate(180)"/><rect class="cls-4" x="151" y="846" width="362" height="2" transform="translate(664 1694) rotate(180)"/><rect class="cls-4" x="160" y="855" width="353" height="2" transform="translate(673 1712) rotate(180)"/><rect class="cls-4" x="169" y="864" width="344" height="2" transform="translate(682 1730) rotate(180)"/><rect class="cls-4" x="513" y="843" width="18" height="30"/><rect class="cls-4" x="531" y="853" width="468" height="2" transform="translate(1530 1708) rotate(180)"/><rect class="cls-4" x="576" y="828" width="2" height="172"/><path class="cls-5" d="M155.973,1242.661c-1.036-.366-2.5,6.031-8.933,12.165-2.3,2.2-3.531,2.726-5.03,5.1-1.107,1.754-3.973,6.3-1.907,10.092,1.971,3.62,7.566,4.978,11.117,3.014,3.036-1.679,3.766-5.335,4.226-7.64.686-3.433-.084-5-.364-9.049C154.509,1248.054,156.931,1243,155.973,1242.661Z"/><path class="cls-5" d="M107.384,1254.231c-.5.979,5.652,3.269,10.894,10.445,1.878,2.571,2.242,3.857,4.4,5.653,1.594,1.326,5.723,4.761,9.756,3.208,3.847-1.481,5.923-6.851,4.44-10.629-1.268-3.228-4.8-4.429-7.022-5.187-3.315-1.128-4.966-.569-9.02-.82C112.54,1256.387,107.845,1253.325,107.384,1254.231Z"/><path class="cls-5" d="M168.779,1260.315c-1.079.211.911,6.465-1.508,15.016-.866,3.064-1.654,4.143-1.737,6.95-.061,2.073-.221,7.441,3.489,9.659,3.538,2.116,9.046.44,11.1-3.057,1.76-2.989.53-6.508-.245-8.727-1.155-3.3-2.614-4.261-4.915-7.607C170.26,1265.7,169.776,1260.119,168.779,1260.315Z"/><path class="cls-5" d="M508.008,1159.847c-1.079.211.911,6.465-1.508,15.016-.866,3.064-1.654,4.143-1.737,6.95-.061,2.073-.221,7.441,3.489,9.659,3.538,2.116,9.046.44,11.1-3.057,1.761-2.989.53-6.508-.245-8.727-1.155-3.305-2.614-4.261-4.915-7.607C509.489,1165.235,509.005,1159.651,508.008,1159.847Z"/><path class="cls-5" d="M279.522,1119.617c-.429,1.012,5.866,2.867,11.6,9.661,2.053,2.433,2.506,3.69,4.784,5.331,1.683,1.212,6.04,4.351,9.956,2.521,3.734-1.746,5.431-7.247,3.688-10.912-1.49-3.132-5.094-4.085-7.367-4.685-3.385-.895-4.993-.221-9.054-.19C284.815,1121.408,279.919,1118.682,279.522,1119.617Z"/><path class="cls-5" d="M470.345,1380.973c-.746-.807-5.025,4.168-13.574,6.6-3.062.87-4.4.767-6.827,2.169-1.8,1.035-6.45,3.716-6.392,8.038.056,4.122,4.374,7.931,8.431,7.849,3.468-.07,5.818-2.964,7.3-4.789,2.207-2.718,2.255-4.461,3.9-8.176C466.536,1385.061,471.034,1381.719,470.345,1380.973Z"/><path class="cls-5" d="M515.59,1510.6c-1.078.211.911,6.465-1.507,15.016-.866,3.064-1.654,4.143-1.737,6.95-.062,2.073-.221,7.441,3.489,9.659,3.537,2.116,9.045.44,11.105-3.057,1.76-2.989.53-6.508-.246-8.727-1.155-3.305-2.614-4.261-4.915-7.607C517.072,1515.988,516.587,1510.4,515.59,1510.6Z"/><path class="cls-5" d="M426.271,1393.279c-1,.449,2.344,6.094,1.915,14.97-.154,3.18-.678,4.409-.126,7.163.407,2.033,1.462,7.3,5.576,8.624,3.923,1.264,8.912-1.61,10.13-5.481,1.042-3.309-.95-6.461-2.206-8.447-1.87-2.96-3.506-3.562-6.5-6.3C428.928,1398.2,427.2,1392.864,426.271,1393.279Z"/><path class="cls-5" d="M541.876,1528.273c-.972-.513-3.352,5.6-10.605,10.739-2.6,1.839-3.889,2.185-5.716,4.316-1.35,1.575-4.846,5.652-3.352,9.708,1.424,3.868,6.763,6.023,10.562,4.6,3.247-1.22,4.5-4.732,5.29-6.945,1.177-3.3.642-4.958.953-9.007C539.645,1533.4,542.775,1528.747,541.876,1528.273Z"/><path class="cls-5" d="M805.716,1167.723c-1.079.212.911,6.466-1.508,15.017-.866,3.064-1.654,4.143-1.737,6.95-.061,2.073-.221,7.441,3.489,9.659,3.538,2.116,9.046.439,11.105-3.057,1.76-2.989.53-6.508-.245-8.727-1.155-3.306-2.614-4.261-4.915-7.607C807.2,1173.112,806.713,1167.528,805.716,1167.723Z"/><path class="cls-5" d="M988.6,1176c-.238,1.073,6.29,1.752,13.159,7.391,2.461,2.02,3.135,3.173,5.674,4.373,1.875.885,6.731,3.179,10.248.667,3.355-2.395,4.023-8.114,1.642-11.4-2.035-2.809-5.752-3.09-8.1-3.268-3.491-.263-4.95.691-8.938,1.461C994.132,1176.8,988.821,1175.012,988.6,1176Z"/><path class="cls-5" d="M791.181,1205.553c-.238,1.073,6.29,1.752,13.159,7.391,2.461,2.02,3.135,3.173,5.674,4.373,1.875.885,6.731,3.18,10.248.667,3.355-2.395,4.023-8.114,1.642-11.4-2.035-2.809-5.752-3.09-8.1-3.267-3.491-.264-4.951.69-8.938,1.46C796.712,1206.352,791.4,1204.561,791.181,1205.553Z"/><path class="cls-5" d="M798.181,1231.522c.413,1.019,6.175-2.124,15.03-1.376,3.172.268,4.382.836,7.153.384,2.047-.334,7.347-1.2,8.819-5.262,1.4-3.876-1.288-8.964-5.113-10.321-3.269-1.16-6.49.717-8.521,1.9-3.025,1.763-3.686,3.377-6.533,6.272C803.19,1229.043,797.8,1230.58,798.181,1231.522Z"/><path class="cls-5" d="M1345.539,1339.622c-1.015-.422-2.827,5.886-9.582,11.661-2.42,2.069-3.674,2.53-5.3,4.82-1.2,1.691-4.31,6.069-2.453,9.972,1.771,3.723,7.284,5.382,10.937,3.614,3.122-1.511,4.049-5.121,4.634-7.4.872-3.391.188-4.995.129-9.056C1343.783,1344.928,1346.477,1340.013,1345.539,1339.622Z"/><path class="cls-5" d="M1423.214,1189.085c-1.091.13.424,6.515-2.629,14.862-1.093,2.989-1.96,4.007-2.253,6.8-.217,2.063-.778,7.4,2.755,9.894,3.369,2.375,8.988,1.116,11.3-2.217,1.979-2.848,1.017-6.45.41-8.72-.9-3.383-2.288-4.445-4.332-7.954C1424.287,1194.569,1424.223,1188.965,1423.214,1189.085Z"/><path class="cls-5" d="M1346.8,1370.516c-.643-.891-5.49,3.534-14.269,4.917-3.145.5-4.455.232-7.038,1.331-1.909.812-6.85,2.914-7.312,7.212-.441,4.1,3.387,8.4,7.425,8.806,3.451.347,6.132-2.243,7.823-3.876,2.518-2.433,2.775-4.158,4.851-7.648C1342.529,1374.117,1347.4,1371.34,1346.8,1370.516Z"/><path class="cls-5" d="M1442.007,1219.791c-.639-.894-5.507,3.507-14.293,4.847-3.147.48-4.456.211-7.045,1.3-1.912.8-6.864,2.881-7.347,7.176-.46,4.1,3.347,8.416,7.383,8.842,3.449.364,6.143-2.213,7.841-3.838,2.53-2.42,2.8-4.143,4.888-7.624C1437.716,1223.371,1442.6,1220.618,1442.007,1219.791Z"/><path class="cls-5" d="M1550.613,1043.318c-1.074.232,1.033,6.447-1.223,15.043-.808,3.079-1.575,4.173-1.606,6.981-.022,2.073-.08,7.444,3.671,9.591,3.577,2.049,9.053.269,11.046-3.266,1.7-3.022.407-6.517-.411-8.721-1.217-3.283-2.694-4.21-5.058-7.513C1552.2,1048.678,1551.607,1043.1,1550.613,1043.318Z"/><path class="cls-5" d="M1401.514,1220.4c-1.048.329,1.621,6.324.164,15.091-.522,3.141-1.185,4.3-.957,7.1.168,2.067.6,7.42,4.537,9.214,3.75,1.711,9.039-.565,10.7-4.268,1.419-3.165-.193-6.527-1.21-8.646-1.514-3.157-3.069-3.945-5.727-7.016C1403.583,1225.589,1402.484,1220.093,1401.514,1220.4Z"/><path class="cls-5" d="M1642.484,1189.147c-.834.714,3.976,5.179,6.082,13.813.754,3.093.6,4.42,1.909,6.9.967,1.834,3.471,6.585,7.792,6.69,4.121.1,8.09-4.071,8.161-8.129.061-3.468-2.743-5.926-4.51-7.475-2.633-2.308-4.373-2.422-8.023-4.2C1646.427,1193.107,1643.256,1188.486,1642.484,1189.147Z"/><path class="cls-5" d="M1634.5,1212.009c-.621.907,5.181,3.974,9.449,11.769,1.529,2.792,1.724,4.114,3.631,6.174,1.409,1.522,5.058,5.463,9.258,4.445,4.007-.97,6.761-6.026,5.779-9.964-.839-3.365-4.183-5.013-6.291-6.053-3.14-1.548-4.85-1.207-8.837-1.981C1639.328,1214.815,1635.069,1211.171,1634.5,1212.009Z"/><path class="cls-5" d="M1833.621,1139.118c-.885-.652-4.146,5.044-12.081,9.046-2.843,1.434-4.17,1.584-6.294,3.42-1.568,1.357-5.63,4.87-4.755,9.1.834,4.037,5.794,6.961,9.763,6.112,3.392-.724,5.152-4.011,6.262-6.082,1.653-3.087,1.37-4.808,2.279-8.766C1830.654,1143.853,1834.439,1139.72,1833.621,1139.118Z"/><path class="cls-5" d="M1142.091,1310.684c-.834.715,3.976,5.179,6.082,13.813.754,3.093.6,4.42,1.909,6.9.967,1.834,3.471,6.585,7.792,6.69,4.121.1,8.09-4.071,8.161-8.129.061-3.468-2.743-5.926-4.51-7.475-2.633-2.308-4.373-2.422-8.023-4.2C1146.034,1314.645,1142.863,1310.023,1142.091,1310.684Z"/><path class="cls-5" d="M1237.858,1118.555c-.695-.851-5.271,3.854-13.952,5.757-3.109.681-4.433.5-6.946,1.747-1.857.924-6.665,3.316-6.871,7.634-.2,4.117,3.881,8.183,7.936,8.348,3.466.142,5.988-2.6,7.578-4.334,2.37-2.578,2.524-4.315,4.388-7.922C1233.806,1122.4,1238.5,1119.342,1237.858,1118.555Z"/><path class="cls-5" d="M1097.931,1775.108c.322,1.051,6.335-1.578,15.092-.062,3.137.543,4.292,1.214,7.092,1,2.068-.154,7.424-.554,9.244-4.474,1.737-3.739-.5-9.043-4.195-10.728-3.156-1.439-6.528.15-8.654,1.152-3.167,1.493-3.966,3.043-7.055,5.679C1103.136,1773.075,1097.633,1774.137,1097.931,1775.108Z"/><path class="cls-5" d="M661.921,1697.107c-.475-.991-6.029,2.507-14.913,2.316-3.183-.068-4.426-.559-7.164.066-2.021.461-7.257,1.657-8.471,5.805-1.158,3.956,1.848,8.866,5.751,9.98,3.335.952,6.432-1.123,8.384-2.432,2.909-1.949,3.467-3.6,6.128-6.669C657.078,1699.9,662.361,1698.023,661.921,1697.107Z"/><path class="cls-5" d="M390.663,1753.112c-.99.478,2.523,6.022,2.356,14.907-.06,3.183-.548,4.427.084,7.163.467,2.02,1.677,7.253,5.828,8.456,3.959,1.148,8.861-1.872,9.965-5.777.943-3.338-1.14-6.43-2.454-8.379-1.957-2.9-3.61-3.457-6.686-6.109C393.464,1757.947,391.578,1752.67,390.663,1753.112Z"/><path class="cls-5" d="M1782.021,1850.693c-.99.478,2.523,6.022,2.356,14.907-.06,3.183-.548,4.427.084,7.163.467,2.02,1.677,7.253,5.828,8.456,3.959,1.148,8.861-1.872,9.965-5.777.943-3.338-1.141-6.43-2.454-8.379-1.957-2.9-3.611-3.457-6.686-6.109C1784.822,1855.528,1782.935,1850.251,1782.021,1850.693Z"/><path class="cls-5" d="M1854.222,1651.209c-.584-.931-5.708,3.17-14.558,3.98-3.17.29-4.46-.058-7.11.872-1.957.686-7.025,2.463-7.764,6.721-.706,4.062,2.834,8.6,6.837,9.27,3.422.57,6.265-1.84,8.058-3.36,2.671-2.264,3.04-3.969,5.338-7.317C1849.724,1654.525,1854.762,1652.07,1854.222,1651.209Z"/><path class="cls-5" d="M1818.2,1875.412c-.415-.849-2.626.178-8.065.326-4.5.122-5.865-.506-8.663.465-1.553.539-3.567,1.238-4.478,3.019-1.868,3.65,1.713,10.251,6.074,10.805a7.266,7.266,0,0,0,4.889-1.6c2.257-1.556,2.428-3.136,4.522-6.161C1815.689,1877.639,1818.682,1876.391,1818.2,1875.412Z"/><path class="cls-5" d="M1817.152,1663.054c-.838.438.248,2.621.541,8.053.242,4.5-.349,5.877.7,8.648.58,1.539,1.333,3.533,3.138,4.4,3.7,1.77,10.2-1.985,10.639-6.359a7.27,7.27,0,0,0-1.726-4.846c-1.615-2.215-3.2-2.343-6.279-4.355C1819.445,1665.509,1818.118,1662.55,1817.152,1663.054Z"/><path class="cls-5" d="M1441.606,1720.238c-.634-.7-2.475.9-7.66,2.545-4.291,1.363-5.776,1.138-8.2,2.845-1.343.948-3.085,2.177-3.467,4.141-.784,4.024,4.483,9.376,8.827,8.7a7.264,7.264,0,0,0,4.257-2.887c1.738-2.119,1.465-3.685,2.639-7.171C1439.805,1723.074,1442.336,1721.046,1441.606,1720.238Z"/><path class="cls-5" d="M858.628,1433.535c-.936.132-.646,2.552-2.192,7.768-1.279,4.318-2.3,5.42-2.244,8.381.031,1.644.071,3.775,1.482,5.194,2.891,2.907,10.277,1.55,12.156-2.424a7.272,7.272,0,0,0,0-5.143c-.779-2.629-2.229-3.281-4.455-6.21C859.964,1436.617,859.707,1433.384,858.628,1433.535Z"/><path class="cls-5" d="M833.005,1187.31c-.773-.543-2.214,1.424-6.9,4.178-3.883,2.28-5.381,2.389-7.363,4.59-1.1,1.222-2.526,2.806-2.464,4.806.126,4.1,6.448,8.151,10.535,6.531a7.274,7.274,0,0,0,3.512-3.758c1.226-2.453.612-3.919.986-7.578C831.877,1190.475,833.9,1187.937,833.005,1187.31Z"/><path class="cls-5" d="M1027.842,1167.606c-.939-.111-1.274,2.3-4.1,6.954-2.336,3.85-3.6,4.656-4.3,7.534-.388,1.6-.892,3.669.111,5.4,2.056,3.548,9.544,4.116,12.372.751a7.271,7.271,0,0,0,1.309-4.975c-.085-2.74-1.32-3.739-2.728-7.138C1028.35,1170.927,1028.924,1167.735,1027.842,1167.606Z"/><path class="cls-5" d="M1046.71,1179.773c-.809-.49-2.113,1.57-6.606,4.637-3.719,2.539-5.206,2.749-7.034,5.08-1.014,1.293-2.329,2.971-2.132,4.962.4,4.08,6.988,7.694,10.955,5.8a7.267,7.267,0,0,0,3.248-3.988c1.056-2.529.345-3.951.469-7.627C1045.8,1183.006,1047.641,1180.337,1046.71,1179.773Z"/><path class="cls-5" d="M526.885,1193.252c-.347-.879-2.632-.028-8.065-.305-4.5-.229-5.808-.962-8.674-.212-1.59.416-3.652.956-4.7,2.661-2.146,3.493.908,10.353,5.213,11.245a7.267,7.267,0,0,0,5-1.209c2.372-1.375,2.665-2.937,4.988-5.789C524.2,1195.275,527.286,1194.265,526.885,1193.252Z"/><path class="cls-5" d="M489.78,1188.292c-.725.606.8,2.507,2.25,7.751,1.2,4.341.916,5.815,2.529,8.3.9,1.378,2.058,3.166,4,3.623,3.992.938,9.542-4.121,9.033-8.487a7.267,7.267,0,0,0-2.722-4.365c-2.051-1.818-3.626-1.605-7.065-2.912C492.545,1190.2,490.615,1187.593,489.78,1188.292Z"/><path class="cls-5" d="M324.751,1123.24c-.848-.419-1.97,1.746-6.182,5.189-3.487,2.849-4.95,3.187-6.57,5.666-.9,1.377-2.065,3.161-1.7,5.128.755,4.03,7.624,7.063,11.413,4.834a7.265,7.265,0,0,0,2.893-4.253c.835-2.611,0-3.966-.19-7.639C324.122,1126.539,325.727,1123.721,324.751,1123.24Z"/><path class="cls-5" d="M176.019,1354.508c.2-.923-2.169-1.49-6.525-4.75-3.6-2.7-4.285-4.037-7.082-5.012-1.552-.541-3.565-1.243-5.385-.412-3.73,1.7-5.019,9.1-1.944,12.242a7.27,7.27,0,0,0,4.825,1.783c2.735.181,3.85-.952,7.369-2.024C172.665,1354.693,175.787,1355.572,176.019,1354.508Z"/><path class="cls-5" d="M180.421,1322.937c-.815-.477-2.088,1.6-6.534,4.738-3.68,2.594-5.163,2.827-6.955,5.186-.995,1.309-2.285,3.006-2.057,4.993.467,4.074,7.1,7.587,11.042,5.633a7.267,7.267,0,0,0,3.187-4.037c1.018-2.546.285-3.956.352-7.634C179.56,1326.184,181.362,1323.487,180.421,1322.937Z"/><path class="cls-5" d="M885.578,1429.211c-.481-.813-2.6.385-8.014.963-4.477.478-5.886-.039-8.6,1.15-1.5.661-3.458,1.517-4.225,3.364-1.573,3.787,2.519,10.084,6.91,10.29A7.267,7.267,0,0,0,876.4,1443c2.127-1.729,2.172-3.318,4.02-6.5C883.247,1431.63,886.132,1430.149,885.578,1429.211Z"/><path class="cls-5" d="M469.048,1399c-.71-.838-5.2,3.95-13.842,6.013-3.1.739-4.424.578-6.914,1.875-1.839.958-6.6,3.439-6.728,7.759-.12,4.121,4.031,8.11,8.088,8.2,3.468.078,5.939-2.713,7.5-4.473,2.322-2.621,2.444-4.361,4.241-8C465.068,1402.927,469.705,1399.779,469.048,1399Z"/><path class="cls-5" d="M466.451,1430.572c-.027-1.1-6.527-.191-14.549-4.015-2.873-1.37-3.805-2.328-6.557-2.883-2.033-.41-7.3-1.471-10.109,1.812-2.681,3.131-1.957,8.843,1.143,11.461,2.65,2.239,6.326,1.619,8.644,1.229,3.452-.583,4.64-1.859,8.326-3.564C460.89,1431.125,466.475,1431.588,466.451,1430.572Z"/><path class="cls-5" d="M529.252,1204.3c-.532-.962-5.875,2.849-14.756,3.167-3.182.114-4.451-.3-7.148.476-1.992.577-7.15,2.071-8.125,6.282-.929,4.016,2.354,8.745,6.314,9.634,3.384.759,6.357-1.49,8.231-2.908,2.793-2.113,3.255-3.794,5.735-7.01C524.577,1207.362,529.743,1205.19,529.252,1204.3Z"/><path class="cls-5" d="M520.485,1234.738c.19-1.082-6.361-1.473-13.472-6.8-2.548-1.91-3.272-3.032-5.861-4.119-1.912-.8-6.864-2.88-10.268-.215-3.245,2.541-3.661,8.283-1.138,11.462,2.157,2.716,5.883,2.833,8.232,2.907,3.5.11,4.916-.908,8.866-1.853C514.924,1234.184,520.309,1235.739,520.485,1234.738Z"/><path class="cls-5" d="M123.272,1280.567c.07-1.1,6.529.07,14.7-3.432,2.926-1.254,3.9-2.174,6.667-2.619,2.048-.328,7.35-1.178,10.029,2.214,2.554,3.236,1.6,8.914-1.6,11.407-2.737,2.131-6.385,1.365-8.685.882-3.427-.719-4.563-2.042-8.178-3.893C128.806,1281.341,123.207,1281.581,123.272,1280.567Z"/><path class="cls-5" d="M144.188,1304.354c-.634-.9,5.124-4.046,9.281-11.9,1.489-2.814,1.665-4.139,3.543-6.226,1.387-1.541,4.98-5.534,9.194-4.576,4.02.914,6.846,5.93,5.92,9.881-.791,3.377-4.111,5.073-6.2,6.142-3.119,1.592-4.834,1.276-8.809,2.107C148.98,1301.48,144.774,1305.184,144.188,1304.354Z"/><path class="cls-5" d="M612.655,1696.956c.989-.479,3.154,5.717,10.222,11.1,2.533,1.93,3.811,2.32,5.562,4.514,1.294,1.621,4.645,5.818,3.01,9.819-1.558,3.816-6.969,5.783-10.716,4.224-3.2-1.334-4.331-4.886-5.044-7.126-1.06-3.337-.468-4.977-.637-9.035C614.706,1702.154,611.74,1697.4,612.655,1696.956Z"/><path class="cls-5" d="M602.247,1726.872c.47-.994,6.045,2.468,14.929,2.22,3.182-.089,4.422-.588,7.163.019,2.025.448,7.268,1.61,8.509,5.75,1.184,3.949-1.791,8.878-5.686,10.017-3.329.974-6.439-1.081-8.4-2.377-2.922-1.93-3.49-3.579-6.171-6.63C607.108,1729.629,601.814,1727.791,602.247,1726.872Z"/><path class="cls-5" d="M1322.712,1348.658c1.1.068-.055,6.529,3.465,14.689,1.261,2.924,2.183,3.891,2.634,6.662.333,2.047,1.2,7.347-2.191,10.033-3.23,2.562-8.91,1.623-11.411-1.573-2.137-2.732-1.379-6.383-.9-8.684.712-3.428,2.033-4.567,3.875-8.186C1321.95,1354.194,1321.7,1348.6,1322.712,1348.658Z"/><path class="cls-5" d="M1298.972,1369.628c.9-.636,4.058,5.115,11.923,9.254,2.817,1.483,4.142,1.656,6.233,3.529,1.545,1.384,5.545,4.967,4.6,9.184-.9,4.022-5.914,6.859-9.867,5.942-3.379-.783-5.082-4.1-6.156-6.19-1.6-3.115-1.287-4.83-2.127-8.8C1301.857,1374.414,1298.144,1370.216,1298.972,1369.628Z"/><path class="cls-5" d="M1683.253,1203.275c-.9-.632-4.038,5.131-11.886,9.3-2.811,1.493-4.135,1.672-6.219,3.553-1.539,1.39-5.525,4.989-4.561,9.2.921,4.018,5.942,6.836,9.891,5.9,3.376-.8,5.066-4.12,6.131-6.215,1.588-3.121,1.268-4.835,2.092-8.812C1680.387,1208.073,1684.084,1203.86,1683.253,1203.275Z"/><path class="cls-5" d="M1688.678,1234.482c-.3-1.057-6.364,1.457-15.09-.227-3.126-.6-4.269-1.3-7.072-1.141-2.071.114-7.433.411-9.328,4.3-1.808,3.7.33,9.05,3.989,10.806,3.127,1.5,6.529-.025,8.674-.986,3.2-1.431,4.024-2.966,7.163-5.543C1683.435,1236.415,1688.958,1235.459,1688.678,1234.482Z"/><path class="cls-5" d="M1840.89,1157.682c-.759-.8-4.956,4.251-13.463,6.821-3.048.92-4.381.838-6.791,2.28-1.779,1.065-6.387,3.823-6.257,8.144.123,4.12,4.5,7.857,8.558,7.708,3.467-.127,5.769-3.06,7.22-4.908,2.162-2.754,2.181-4.5,3.761-8.24C1837.149,1161.833,1841.592,1158.417,1840.89,1157.682Z"/><path class="cls-5" d="M1840.163,1189.349c-.091-1.1-6.526.2-14.76-3.149-2.95-1.2-3.936-2.1-6.717-2.49-2.053-.289-7.371-1.037-9.984,2.406-2.491,3.284-1.431,8.943,1.819,11.374,2.777,2.078,6.41,1.242,8.7.715,3.412-.785,4.522-2.13,8.1-4.049C1834.644,1190.229,1840.247,1190.361,1840.163,1189.349Z"/><path class="cls-5" d="M1790.972,1156.544c.857-.687,4.348,4.87,12.44,8.545,2.9,1.317,4.231,1.412,6.428,3.161,1.623,1.291,5.824,4.636,5.123,8.9-.669,4.068-5.5,7.191-9.5,6.506-3.419-.586-5.312-3.8-6.505-5.822-1.778-3.017-1.566-4.748-2.636-8.665C1794.13,1161.154,1790.179,1157.179,1790.972,1156.544Z"/><path class="cls-5" d="M1785.849,1185.958c.608-.916,5.626,3.315,14.452,4.351,3.162.372,4.46.057,7.085,1.054,1.939.736,6.96,2.642,7.59,6.918.6,4.078-3.054,8.526-7.073,9.091-3.435.483-6.216-2-7.969-3.565-2.612-2.332-2.937-4.045-5.148-7.451C1790.261,1189.387,1785.288,1186.8,1785.849,1185.958Z"/><path class="cls-3" d="M956.97,2000a284.314,284.314,0,0,0,10.7-74.87q.075-9.855-.54-19.29c-3.12-49.47-19.25-90.11-35.11-119.12q-1.485-2.73-2.97-5.32c-1.3-2.26-2.59-4.45-3.86-6.55v-.01c-.81-1.33-1.62-2.64-2.41-3.9-1.16-1.85-2.29-3.62-3.41-5.32-2.3-3.51-4.51-6.72-6.57-9.61-2.22-3.13-4.28-5.88-6.09-8.26-.72-.93-1.4-1.81-2.04-2.62"/><path class="cls-3" d="M1003.107,1749.054c-16.121,33.189-32.535,79.158-35.519,135a337.492,337.492,0,0,0,0,36"/><path class="cls-3" d="M1645.36,2000a204.163,204.163,0,0,1-21.75-31.17c-31.56-54.77-35.8-108.58-36-135-.05-6.56.14-12.99.53-19.28,3.89-61.51,27.89-109.4,46.46-138.21,1.02-1.58,2.02-3.11,3-4.57,1.61-2.41,3.17-4.65,4.64-6.73.08-.11.15-.21.22-.31,1.22-1.71,2.39-3.31,3.49-4.79.54-.72,1.06-1.42,1.56-2.09.87-1.15,1.69-2.21,2.46-3.2.22-.28.43-.55.64-.82"/><path class="cls-3" d="M1552.171,1657.756c16.121,33.189,32.535,79.158,35.52,135a338.019,338.019,0,0,1,0,36"/><path class="cls-5" d="M937.64,1733.637c-.719-.831-5.159,4-13.783,6.149-3.089.77-4.417.622-6.895,1.944-1.829.975-6.568,3.5-6.651,7.824-.079,4.122,4.111,8.07,8.169,8.121,3.468.044,5.912-2.771,7.452-4.546,2.3-2.645,2.4-4.385,4.162-8.044C933.7,1737.6,938.305,1734.406,937.64,1733.637Z"/><path class="cls-5" d="M889.693,1719.644c-.918.6,3.293,5.638,4.3,14.468.36,3.163.04,4.46,1.027,7.089.729,1.942,2.616,6.97,6.889,7.616,4.076.617,8.538-3.022,9.118-7.038.5-3.433-1.976-6.224-3.535-7.983-2.321-2.621-4.033-2.952-7.431-5.176C893.106,1724.069,890.541,1719.085,889.693,1719.644Z"/><path class="cls-5" d="M940.031,1755.315c-1.042-.351-2.408,6.068-8.742,12.3-2.269,2.234-3.488,2.782-4.949,5.18-1.079,1.77-3.874,6.356-1.749,10.119,2.028,3.59,7.643,4.859,11.163,2.84,3.009-1.726,3.682-5.393,4.106-7.705.632-3.444-.163-5-.506-9.043C938.651,1760.73,940.994,1755.638,940.031,1755.315Z"/><path class="cls-5" d="M890.464,1750.392c.6-.919,5.639,3.291,14.47,4.291,3.163.358,4.46.038,7.09,1.024,1.941.728,6.97,2.614,7.618,6.887.618,4.076-3.019,8.539-7.035,9.12-3.433.5-6.224-1.974-7.984-3.532-2.622-2.321-2.954-4.032-5.179-7.429C894.891,1753.8,889.906,1751.24,890.464,1750.392Z"/><path class="cls-5" d="M896.867,1781.413c-.107-1.094,6.455-.981,13.955-5.749,2.687-1.708,3.5-2.772,6.16-3.656,1.968-.653,7.065-2.344,10.254.574,3.041,2.783,3.014,8.54.254,11.516-2.359,2.543-6.083,2.373-8.431,2.266-3.5-.16-4.831-1.283-8.7-2.529C902.454,1781.287,896.966,1782.424,896.867,1781.413Z"/><path class="cls-5" d="M1017.4,1726.2c-.964-.527-3.433,5.554-10.76,10.583-2.625,1.8-3.921,2.128-5.779,4.233-1.373,1.554-4.927,5.58-3.493,9.657,1.367,3.889,6.674,6.122,10.493,4.75,3.265-1.173,4.569-4.665,5.391-6.867,1.225-3.28.715-4.947,1.085-8.992C1015.1,1731.287,1018.293,1726.685,1017.4,1726.2Z"/><path class="cls-5" d="M987.52,1739.754c1.043-.348,2.4,6.073,8.723,12.317,2.265,2.237,3.483,2.787,4.941,5.187,1.076,1.772,3.864,6.362,1.732,10.122-2.033,3.586-7.65,4.847-11.167,2.822-3.006-1.73-3.673-5.4-4.094-7.711-.626-3.445.171-5,.521-9.042C988.891,1745.172,986.557,1740.077,987.52,1739.754Z"/><path class="cls-5" d="M1673.169,1633.145c.586.93-5.33,3.772-9.894,11.4-1.636,2.731-1.881,4.045-3.866,6.03-1.466,1.467-5.264,5.265-9.422,4.086-3.966-1.123-6.524-6.281-5.392-10.178.968-3.331,4.372-4.85,6.519-5.807,3.2-1.426,4.893-1.02,8.907-1.641C1668.232,1635.763,1672.627,1632.286,1673.169,1633.145Z"/><path class="cls-5" d="M1674.039,1657.348c.326,1.05-6.124,2.263-12.507,8.447-2.286,2.216-2.863,3.421-5.295,4.825-1.8,1.037-6.446,3.722-10.158,1.508-3.54-2.112-4.676-7.756-2.574-11.227,1.8-2.967,5.479-3.553,7.8-3.922,3.458-.55,4.991.281,9.028.721C1668.593,1658.6,1673.738,1656.378,1674.039,1657.348Z"/><path class="cls-5" d="M1630.046,1634.584c1.045-.338,2.339,6.1,8.6,12.4,2.243,2.258,3.456,2.82,4.89,5.234,1.059,1.783,3.8,6.4,1.635,10.139-2.068,3.566-7.7,4.773-11.194,2.714-2.989-1.76-3.621-5.434-4.019-7.751-.593-3.45.219-4.993.608-9.036C1631.364,1640.015,1629.079,1634.9,1630.046,1634.584Z"/><path class="cls-5" d="M1608.58,1656.872c.6-.92,5.649,3.274,14.483,4.246,3.165.348,4.461.024,7.093,1,1.944.722,6.979,2.592,7.64,6.863.631,4.074-2.992,8.548-7.006,9.143-3.431.508-6.23-1.955-7.995-3.507-2.629-2.313-2.966-4.023-5.2-7.413C1613.017,1660.27,1608.025,1657.723,1608.58,1656.872Z"/><path class="cls-5" d="M1575.935,1642.152c.922.6-3.254,5.66-4.2,14.5-.337,3.166-.009,4.461-.977,7.1-.715,1.947-2.567,6.988-6.836,7.664-4.072.645-8.559-2.962-9.167-6.974-.52-3.43,1.933-6.237,3.479-8.007,2.3-2.637,4.013-2.981,7.395-5.229C1572.553,1646.6,1575.082,1641.6,1575.935,1642.152Z"/><path class="cls-5" d="M1532.664,1645.768c.791-.947,3.823,1.7,10.514,2.914,3.961.717,4.515.044,7.093,1,1.944.722,6.979,2.592,7.64,6.863.631,4.074-2.991,8.548-7.006,9.143-3.431.508-6.23-1.955-7.995-3.507-1.665-1.465-2.044-2.386-5.2-7.413C1533.451,1647.994,1532.1,1646.44,1532.664,1645.768Z"/><path class="cls-5" d="M1579.807,1665.227c-.634-.7-2.474.9-7.659,2.545-4.292,1.364-5.776,1.138-8.2,2.846-1.343.948-3.084,2.177-3.467,4.14-.784,4.025,4.483,9.377,8.827,8.7a7.27,7.27,0,0,0,4.257-2.887c1.738-2.12,1.465-3.686,2.64-7.172C1578.006,1668.063,1580.537,1666.036,1579.807,1665.227Z"/><path class="cls-5" d="M1585.7,1678.362c-.634-.7-2.474.9-7.659,2.545-4.292,1.363-5.776,1.138-8.2,2.845-1.344.948-3.085,2.177-3.468,4.141-.784,4.024,4.483,9.376,8.827,8.7a7.261,7.261,0,0,0,4.257-2.887c1.739-2.119,1.465-3.685,2.64-7.171C1583.9,1681.2,1586.433,1679.17,1585.7,1678.362Z"/><path class="cls-5" d="M1101.965,1731.977c-.831.719,4,5.159,6.151,13.782.77,3.09.623,4.418,1.944,6.895.977,1.829,3.505,6.568,7.826,6.65,4.122.079,8.07-4.112,8.12-8.17.043-3.468-2.773-5.911-4.548-7.452-2.644-2.3-4.385-2.4-8.044-4.161C1105.927,1735.918,1102.734,1731.313,1101.965,1731.977Z"/><path class="cls-5" d="M674.07,1259.884c-1.082-.194-1.493,6.356-6.845,13.451-1.918,2.541-3.043,3.262-4.137,5.848-.809,1.909-2.9,6.855-.248,10.267,2.531,3.253,8.272,3.687,11.459,1.173,2.723-2.148,2.852-5.874,2.933-8.223.12-3.5-.893-4.918-1.826-8.87C673.5,1265.443,675.07,1260.063,674.07,1259.884Z"/><path class="cls-5" d="M621.226,1261.992c-.165,1.087.822.9,8.056,6.062,2.592,1.849,3.342,2.954,5.956,3.979,1.931.757,6.931,2.718,10.27-.026,3.185-2.617,3.465-8.367.868-11.486-2.22-2.665-5.948-2.694-8.3-2.712-3.5-.028-4.893,1.023-8.819,2.061C621.226,1261.992,621.379,1260.988,621.226,1261.992Z"/><path class="cls-5" d="M669.125,1249.291c-.794-.76-1.209.154-9.6,3.1-3,1.054-4.339,1.032-6.683,2.579-1.73,1.142-6.212,4.1-5.891,8.412.306,4.111,4.847,7.651,8.892,7.322,3.457-.281,5.627-3.312,7-5.223,2.038-2.847,1.98-4.59,3.392-8.4C669.125,1249.291,669.858,1249.994,669.125,1249.291Z"/><path class="cls-5" d="M631.259,1277.605c-.165,1.087.822.9,8.056,6.062,2.592,1.849,3.342,2.954,5.956,3.98,1.931.757,6.931,2.717,10.27-.026,3.185-2.617,3.465-8.368.868-11.486-2.22-2.665-5.948-2.695-8.3-2.713-3.5-.027-4.893,1.024-8.819,2.061C631.259,1277.605,631.412,1276.6,631.259,1277.605Z"/><rect class="cls-4" x="1941.264" y="845" width="18" height="54"/><rect class="cls-4" y="853" width="92" height="2"/><rect class="cls-4" x="81" y="510" width="18" height="30"/><rect class="cls-4" x="90" y="531" width="2" height="324" transform="translate(182 1386) rotate(180)"/><rect class="cls-4" x="1836" y="261" width="164" height="2"/><rect class="cls-4" x="1845" y="269.8" width="155" height="2"/><rect class="cls-4" x="1863" y="288" width="137" height="2"/><rect class="cls-4" x="1854" y="279" width="146" height="2"/><rect class="cls-4" x="1836" width="2" height="261"/><rect class="cls-4" x="1845" width="2" height="270"/><rect class="cls-4" x="1854" width="2" height="279"/><rect class="cls-4" x="1863" width="2" height="288"/><path class="cls-3" d="M0,1447.52c36.14-31.09,85.76-64.87,154.31-100.24,2.02-1.04,4.05-2.09,6.11-3.14,2.02-1.02,4.06-2.06,6.12-3.09,1.36-.68,2.73-1.37,4.1-2.05"/><path class="cls-3" d="M1918.24,2000c2.37-5.08,4.3-9.06,5.72-11.82,6.34-12.32,12.73-22.87,12.73-22.87q3.195-5.3,6.7-10.65a367.837,367.837,0,0,1,56.61-67.17"/><path class="cls-3" d="M0,1891.63a392.008,392.008,0,0,1,33.49-28.84q7.44-5.73,14.59-10.71c.39-.28.79-.56,1.18-.83q2.685-1.875,5.33-3.65"/><path class="cls-5" d="M80.607,1833.828c-.638-1-6.282,3.368-16.007,4.2-3.484.3-4.9-.078-7.814.906-2.152.726-7.725,2.607-8.554,7.158-.791,4.339,3.081,9.206,7.476,9.935,3.756.623,6.889-1.944,8.864-3.562,2.943-2.411,3.354-4.232,5.891-7.8C75.653,1837.357,81.2,1834.75,80.607,1833.828Z"/><path class="cls-5" d="M44.7,1830.755c1.185.223-.983,6.915,1.7,16.051.96,3.273,1.828,4.425,1.927,7.426.073,2.216.263,7.955-3.806,10.336-3.88,2.272-9.935.5-12.207-3.239-1.942-3.19-.6-6.956.245-9.331,1.26-3.537,2.86-4.562,5.378-8.146C43.089,1836.52,43.605,1830.549,44.7,1830.755Z"/></g></svg>