<svg id="Layer_1" data-name="Layer 1" xmlns="http://www.w3.org/2000/svg" viewBox="0 0 700 405.64"><defs><style>.cls-1{fill:none}.cls-3{fill:#8bc34a}</style></defs><path class="cls-1" d="M389.57 696.08q-3.255.66-6.54 1.2 3.27-.555 6.54-1.2zM408.96 691.16c-2.12.66-4.27 1.28-6.43 1.86q3.225-.885 6.43-1.86zM427.69 684.35q-3 1.275-6.04 2.43c2.02-.78 4.04-1.59 6.04-2.43zM482.29 649.99v.01c-.02.01-.03.03-.04.04-.58.51-1.16 1.02-1.75 1.51.6-.52 1.2-1.04 1.79-1.56zM342.27 699.85c-1.31-.05-2.62-.11-3.92-.19-.02 0-.04-.01-.06-.01 1.33.08 2.65.15 3.98.2zM291.42 691.28q-7.485-2.295-14.7-5.14 7.26 2.85 14.69 5.11c0 .01.01.02.01.03zM335.24 699.45q-2.955-.21-5.87-.52 2.925.3 5.87.52zM430.55 549.89q-1.6-7.1-2.76-14.38a66.687 66.687 0 012.76 14.38z" transform="translate(-150 -294.36)"/><path class="cls-1" d="M620.54 302.16c-.62.09-1.24.18-1.86.28.99-.08 1.98-.15 2.98-.21-.37-.04-.75-.06-1.12-.07zM513.2 345.11c-.32.33-.63.67-.94 1.01.35-.3.69-.61 1.04-.9a1 1 0 00-.1-.11zm-85.41 190.4q1.155 7.275 2.76 14.38a66.687 66.687 0 00-2.76-14.38z" transform="translate(-150 -294.36)"/><path class="cls-1" d="M329.37 698.93q2.91.315 5.87.52-2.94-.225-5.87-.52zm8.92.72c.02 0 .04.01.06.01 1.3.08 2.61.14 3.92.19-1.33-.05-2.65-.12-3.98-.2zm44.74-2.37q3.285-.54 6.54-1.2-3.27.645-6.54 1.2zm19.5-4.26c2.16-.58 4.31-1.2 6.43-1.86q-3.21.975-6.43 1.86zm-190.52-48.25q2.61 2.505 5.3 4.88c-1.79-1.6-3.56-3.22-5.3-4.88zm11.95 10.53c1.08.88 2.17 1.76 3.27 2.6-1.1-.86-2.19-1.72-3.27-2.6zm7.67 5.94q5.55 4.1 11.31 7.73-5.79-3.69-11.31-7.73zm59.78 30.01q-7.425-2.265-14.69-5.11 7.215 2.85 14.7 5.14c0-.01-.01-.02-.01-.03zM513.2 345.11c-.32.33-.63.67-.94 1.01.35-.3.69-.61 1.04-.9a1 1 0 00-.1-.11zm-85.41 190.4q1.155 7.275 2.76 14.38a66.687 66.687 0 00-2.76-14.38zm52.71 116.04c.59-.49 1.17-1 1.75-1.51.01-.01.02-.03.04-.04v-.01c-.59.52-1.19 1.04-1.79 1.56zm-52.81 32.8c-2 .84-4.02 1.65-6.04 2.43q3.05-1.155 6.04-2.43zM620.54 302.16c-.62.09-1.24.18-1.86.28.99-.08 1.98-.15 2.98-.21-.37-.04-.75-.06-1.12-.07z" transform="translate(-150 -294.36)"/><path class="cls-1" d="M329.37 698.93q2.925.3 5.87.52c1.01.07 2.02.14 3.03.2M242.94 668.97q-5.76-3.645-11.31-7.73M227.23 657.9c-1.1-.84-2.19-1.72-3.27-2.6M210.29 643.11c.57.56 1.14 1.12 1.72 1.66q2.61 2.505 5.3 4.88M385.77 562.32a101.853 101.853 0 0030.66-48.43M580.43 486.99a105.517 105.517 0 0131.74-50.12M583.71 304.93a.037.037 0 01.03-.01.031.031 0 01.02-.01q8.58-2.85 17.32-4.93M513.3 345.22c-.35.29-.69.6-1.04.9" transform="translate(-150 -294.36)"/><path class="cls-1" d="M496.72 0h-.01M694.66 159.57v-.04"/><path class="cls-1" d="M430.56 549.92a66.587 66.587 0 01-17.13 50.21M430.55 549.89a66.687 66.687 0 00-2.76-14.38M482.25 650.04c.01-.01.02-.03.04-.04v-.01M571.71 472.66v-.01M565.99 436.75a68.855 68.855 0 0117.55-39.02M583.71 304.93a.037.037 0 01.03-.01.031.031 0 01.02-.01M558.46 313.01c-.06.02-.11.05-.16.07M513.2 345.11c-.32.33-.63.67-.94 1.01M542.94 320.98c-.28.16-.55.33-.83.49M621.66 302.23c-.37-.04-.75-.06-1.12-.07M329.37 698.93q2.91.315 5.87.52-2.94-.225-5.87-.52z" transform="translate(-150 -294.36)"/><path class="cls-1" d="M496.72 0h-.01"/><path class="cls-1" d="M666.77 300.83a.076.076 0 01-.04-.01M686.32 310.44c-1.12-.66-2.24-1.3-3.37-1.92M499.91 338.99c-.03.04-.07.07-.1.11M562.37 425.48a76.272 76.272 0 0116.57-29.08" transform="translate(-150 -294.36)"/><path class="cls-1" d="M526.57 13.21h-.01"/><path class="cls-1" d="M707.91 314.39c-.01 0-.01-.01-.02-.01M585.39 492.62a98.289 98.289 0 0131.37-53.97M645.27 305.99a192.058 192.058 0 00-121.58 48.13" transform="translate(-150 -294.36)"/><path class="cls-1" d="M526.57 13.21h-.01"/><path class="cls-1" d="M575.29 479.52c-3.49-25.44 5.98-52.02 27.81-70.27M618.68 302.44a168.426 168.426 0 00-94.99 38.44M571.71 472.66v-.01M572.02 463.33a80.922 80.922 0 0129.19-54.78M707.91 314.39c-.01 0-.01-.01-.02-.01M665.49 300.59a.014.014 0 01.02 0M666.77 300.83a.076.076 0 01-.04-.01M542.94 320.98c-.28.16-.55.33-.83.49M558.46 313.01c-.06.02-.11.05-.16.07M480.5 651.55c.59-.49 1.17-1 1.75-1.51.01-.01.02-.03.04-.04v-.01c-.59.52-1.19 1.04-1.79 1.56zm-52.81 32.8c-2 .84-4.02 1.65-6.04 2.43q3.05-1.155 6.04-2.43zm.1-148.84q1.155 7.275 2.76 14.38a66.687 66.687 0 00-2.76-14.38zM291.41 691.25q-7.425-2.265-14.69-5.11 7.215 2.85 14.7 5.14c0-.01-.01-.02-.01-.03zm-59.78-30.01q5.55 4.1 11.31 7.73-5.79-3.69-11.31-7.73zm-7.67-5.94c1.08.88 2.17 1.76 3.27 2.6-1.1-.86-2.19-1.72-3.27-2.6zm-11.95-10.53q2.61 2.505 5.3 4.88c-1.79-1.6-3.56-3.22-5.3-4.88zm190.52 48.25c2.16-.58 4.31-1.2 6.43-1.86q-3.21.975-6.43 1.86zm-19.5 4.26q3.285-.54 6.54-1.2-3.27.645-6.54 1.2zm-44.74 2.37c.02 0 .04.01.06.01 1.3.08 2.61.14 3.92.19-1.33-.05-2.65-.12-3.98-.2zm-8.92-.72q2.91.315 5.87.52-2.94-.225-5.87-.52z" transform="translate(-150 -294.36)"/><path d="M430.56 549.92a224.356 224.356 0 0051.73 100.07c-.59.52-1.19 1.04-1.79 1.56-1.79 1.55-3.61 3.06-5.44 4.53-.62.49-1.23.97-1.84 1.46q-1.86 1.44-3.72 2.84c-1.23.92-2.47 1.82-3.72 2.72a.091.091 0 00-.05.03c-1.26.89-2.53 1.78-3.81 2.64q-3.84 2.6-7.75 4.99c-.66.4-1.31.8-1.97 1.19-.53.32-1.07.63-1.6.94-.82.48-1.64.95-2.46 1.42-.52.29-1.05.58-1.57.87-.81.45-1.63.89-2.45 1.33-.63.34-1.26.67-1.89 1q-3.03 1.575-6.09 3.04c-.68.32-1.36.64-2.05.96-2.12.99-4.25 1.93-6.4 2.84-2 .84-4.02 1.65-6.04 2.43-1.4.53-2.8 1.05-4.21 1.56-.7.25-1.4.49-2.11.74-.68.23-1.37.46-2.05.7a.254.254 0 01-.07.02c-1.41.47-2.83.92-4.25 1.36q-3.21.975-6.43 1.86c-.71.19-1.43.38-2.15.57-1.43.37-2.87.72-4.3 1.07h-.01c-1.44.34-2.89.66-4.33.97-.73.15-1.45.3-2.17.45q-3.27.645-6.54 1.2a.292.292 0 00-.09.02c-1.43.23-2.85.45-4.28.66-1.5.21-3 .41-4.51.59l-2.07.24c-.73.08-1.46.16-2.2.23q-3.675.36-7.37.59c-.71.05-1.44.09-2.16.13h-.13c-.83.05-1.66.08-2.49.11-.85.04-1.71.06-2.57.08s-1.71.04-2.57.05c-.84.01-1.68.02-2.52.02q-3.9 0-7.8-.15c-1.33-.05-2.65-.12-3.98-.2h-.02c-13.08-2.77-19.89-11.55-21.81-25.52-.07-.48-.13-.97-.18-1.46a68.822 68.822 0 01-.4-7.65c0-9.81 1.23-19.21 2.86-29.43a186.079 186.079 0 002.86-31.07c.41-26.16-11.03-40.06-29.43-44.55v-.82c18.4-4.91 29.84-17.99 29.43-44.15a170 170 0 00-1.63-22.8c-.06-.42-.11-.85-.18-1.27q-.48-3.495-1.05-7a179.436 179.436 0 01-2.86-29.02c0-22.07 8.18-35.15 32.29-35.15h7.36v-22.49h-8.58c-34.75 0-59.28 15.94-59.28 53.55 0 11.45 1.64 22.49 3.27 33.93 1.14 7.94 2.27 15.89 2.84 23.84.04.42.07.83.1 1.25.21 3.08.33 6.17.33 9.25 0 12.77-3.25 26.83-24.56 29.71l-.47.06h-.01a64.29 64.29 0 01-8.07.48v20.85c1.19 0 2.34.03 3.44.08.05 0 .1.01.15.01 25.78 1.41 29.52 18.03 29.52 30.16 0 11.03-1.63 22.07-3.27 33.11-.76 5.18-1.53 10.44-2.13 15.71-.05.4-.1.79-.14 1.19v.01a155.775 155.775 0 00-1 16.61 71.421 71.421 0 003.74 24.18q-7.425-2.265-14.69-5.11-2.625-1.035-5.22-2.14c-.81-.35-1.61-.69-2.41-1.05s-1.6-.71-2.4-1.08-1.57-.72-2.36-1.09c-.54-.26-1.09-.52-1.63-.79q-.795-.375-1.59-.78-2.31-1.14-4.57-2.34c-1.66-.88-3.3-1.78-4.94-2.7-1.21-.68-2.4-1.38-3.59-2.08a.138.138 0 01-.04-.03c-.9-.54-1.8-1.08-2.69-1.63-.78-.48-1.56-.97-2.34-1.46q-5.79-3.69-11.31-7.73c-.01-.02-.02-.02-.03-.03-1.47-1.08-2.93-2.19-4.37-3.31-1.1-.86-2.19-1.72-3.27-2.6a.27.27 0 00-.08-.07c-1.44-1.17-2.87-2.37-4.28-3.58-.77-.66-1.53-1.33-2.29-2-1.79-1.6-3.56-3.22-5.3-4.88-.58-.55-1.15-1.1-1.72-1.66s-1.14-1.12-1.71-1.69c-.53-.53-1.06-1.06-1.58-1.6-1.74-1.78-3.45-3.59-5.13-5.45-.62-.68-1.24-1.38-1.86-2.08-.84-.95-1.66-1.91-2.48-2.87A199.108 199.108 0 01150 500c0-110.46 89.54-200 200-200a199.221 199.221 0 01132.29 50 225.4 225.4 0 00-54.5 185.5c.01 0 .01 0 0 .01q1.155 7.275 2.76 14.38a.037.037 0 01.01.03z" transform="translate(-150 -294.36)" fill="#03a9f4"/><path class="cls-1" d="M513.2 345.11c-.32.33-.63.67-.94 1.01.35-.3.69-.61 1.04-.9a1 1 0 00-.1-.11zm107.34-42.95c-.62.09-1.24.18-1.86.28.99-.08 1.98-.15 2.98-.21-.37-.04-.75-.06-1.12-.07z" transform="translate(-150 -294.36)"/><path class="cls-3" d="M744.28 530.78c-43.62 36.47-110.16 32.51-148.64-8.83a80.137 80.137 0 01-12.02-16.78c-.3-.58-.6-1.15-.9-1.73.32.3.64.6.97.9.15.15.3.29.46.43a95.889 95.889 0 00135.46-6.51 119.87 119.87 0 00-8.13-169.33 150.007 150.007 0 00-25.16-18.49 164.45 164.45 0 0169.61 44.25c48.09 51.68 42.87 130.52-11.65 176.09z" transform="translate(-150 -294.36)"/><path class="cls-3" d="M782.21 588.93A123.415 123.415 0 01608.02 578a98.315 98.315 0 01-24.68-66.11 82.852 82.852 0 0010.15 13.37c39.84 42.81 108.75 46.91 153.92 9.15 56.46-47.2 61.86-128.84 12.06-182.36a169.2 169.2 0 00-51.56-37.66 191.954 191.954 0 0187.96 56.8 154.272 154.272 0 01-13.66 217.74z" transform="translate(-150 -294.36)"/><path class="cls-3" d="M850 500c0 110.46-89.54 200-200 200a199.221 199.221 0 01-132.29-50A224.17 224.17 0 00575 500c0-1.74-.02-3.48-.06-5.21-.01-.65-.03-1.28-.05-1.93v-.01q-.255-8.025-1.06-15.9-.69-6.885-1.81-13.61v-.01a223.232 223.232 0 00-6.03-26.58q-1.665-5.7-3.62-11.27A224.921 224.921 0 00517.71 350a199.235 199.235 0 01100.97-47.56c.99-.08 1.98-.15 2.98-.21a133.734 133.734 0 0123.61 3.76h.01a134.45 134.45 0 0157.65 30.96 108 108 0 017.33 152.54 86.392 86.392 0 01-122.03 5.86c-.98-.89-1.92-1.8-2.84-2.73a67.255 67.255 0 01-4.96-5.63c-.66 2.27-1.23 4.57-1.72 6.87v.01c-.33 1.48-.62 2.97-.87 4.46q-.18 1.005-.33 2.01a105.751 105.751 0 0025.28 86.14 132.5 132.5 0 00187.01 11.73 165.43 165.43 0 0054.86-144.28A200.433 200.433 0 01850 500z" transform="translate(-150 -294.36)"/></svg>