<svg id="Layer_1" data-name="Layer 1" xmlns="http://www.w3.org/2000/svg" viewBox="0 0 700 405.64"><defs><style>.cls-1{fill:none;}.cls-2{fill:#b6bde3;}.cls-3{fill:#8cbf99;}</style></defs><path class="cls-1" d="M389.57,696.08q-3.26.66-6.54,1.2Q386.3,696.72,389.57,696.08Z" transform="translate(-150 -294.36)"/><path class="cls-1" d="M409,691.16c-2.12.66-4.27,1.28-6.43,1.86Q405.76,692.14,409,691.16Z" transform="translate(-150 -294.36)"/><path class="cls-1" d="M427.69,684.35q-3,1.27-6,2.43C423.67,686,425.69,685.19,427.69,684.35Z" transform="translate(-150 -294.36)"/><path class="cls-1" d="M482.29,650h0l0,0c-.58.51-1.16,1-1.75,1.51Z" transform="translate(-150 -294.36)"/><path class="cls-1" d="M342.27,699.85c-1.31-.05-2.62-.11-3.92-.19h-.06C339.62,699.73,340.94,699.8,342.27,699.85Z" transform="translate(-150 -294.36)"/><path class="cls-1" d="M291.42,691.28q-7.49-2.29-14.7-5.14,7.26,2.85,14.69,5.11Z" transform="translate(-150 -294.36)"/><path class="cls-1" d="M335.24,699.45q-3-.21-5.87-.52Q332.29,699.23,335.24,699.45Z" transform="translate(-150 -294.36)"/><path class="cls-1" d="M430.55,549.89q-1.6-7.1-2.76-14.38A66.69,66.69,0,0,1,430.55,549.89Z" transform="translate(-150 -294.36)"/><path class="cls-1" d="M620.54,302.16l-1.86.28c1-.08,2-.15,3-.21C621.29,302.19,620.91,302.17,620.54,302.16ZM513.2,345.11c-.32.33-.63.67-.94,1,.35-.3.69-.61,1-.9Zm-85.41,190.4q1.15,7.28,2.76,14.38A66.69,66.69,0,0,0,427.79,535.51Z" transform="translate(-150 -294.36)"/><path class="cls-1" d="M480.5,651.55c-1.79,1.55-3.61,3.06-5.44,4.53l-1.84,1.46q-1.86,1.44-3.72,2.84c-1.23.93-2.47,1.83-3.72,2.72l0,0c-1.26.89-2.53,1.78-3.81,2.64q-3.84,2.6-7.75,5l-2,1.19-1.6.94-2.46,1.42-1.57.87c-.81.45-1.63.89-2.45,1.33l-1.89,1q-3,1.57-6.09,3l-2.05,1c-2.12,1-4.25,1.93-6.4,2.84s-4,1.65-6,2.43c-1.4.53-2.8,1.05-4.21,1.56l-2.11.74-2.05.7a129.73,129.73,0,0,0,69-39.74l0,0h0Zm-52.71-116q1.15,7.28,2.76,14.38A66.69,66.69,0,0,0,427.79,535.51Zm85.41-190.4c-.32.33-.63.67-.94,1,.35-.3.69-.61,1-.9ZM291.41,691.25Q284,689,276.72,686.14q7.21,2.85,14.7,5.14Zm-59.78-30q5.55,4.1,11.31,7.73Q237.15,665.28,231.63,661.24ZM224,655.3c1.08.88,2.17,1.76,3.27,2.6C226.13,657,225,656.18,224,655.3Zm-12-10.53q2.61,2.51,5.3,4.88C215.52,648.05,213.75,646.43,212,644.77ZM402.53,693c2.16-.58,4.31-1.2,6.43-1.86Q405.75,692.14,402.53,693ZM383,697.28q3.29-.54,6.54-1.2Q386.3,696.72,383,697.28Zm-44.74,2.37h.06c1.3.08,2.61.14,3.92.19C340.94,699.8,339.62,699.73,338.29,699.65Zm-8.92-.72q2.91.32,5.87.52Q332.3,699.22,329.37,698.93Z" transform="translate(-150 -294.36)"/><path class="cls-1" d="M620.54,302.16l-1.86.28c1-.08,2-.15,3-.21C621.29,302.19,620.91,302.17,620.54,302.16Z" transform="translate(-150 -294.36)"/><path class="cls-1" d="M329.37,698.93q2.92.3,5.87.52l3,.2" transform="translate(-150 -294.36)"/><path class="cls-1" d="M242.94,669q-5.76-3.65-11.31-7.73" transform="translate(-150 -294.36)"/><path class="cls-1" d="M227.23,657.9c-1.1-.84-2.19-1.72-3.27-2.6" transform="translate(-150 -294.36)"/><path class="cls-1" d="M210.29,643.11c.57.56,1.14,1.12,1.72,1.66q2.61,2.51,5.3,4.88" transform="translate(-150 -294.36)"/><path class="cls-1" d="M385.77,562.32a101.85,101.85,0,0,0,30.66-48.43" transform="translate(-150 -294.36)"/><path class="cls-1" d="M580.43,487a105.52,105.52,0,0,1,31.74-50.12" transform="translate(-150 -294.36)"/><path class="cls-1" d="M583.71,304.93h0q8.58-2.85,17.32-4.93" transform="translate(-150 -294.36)"/><path class="cls-1" d="M513.3,345.22c-.35.29-.69.6-1,.9" transform="translate(-150 -294.36)"/><line class="cls-1" x1="496.72" x2="496.71"/><line class="cls-1" x1="694.66" y1="159.57" x2="694.66" y2="159.53"/><path class="cls-1" d="M430.56,549.92a66.59,66.59,0,0,1-17.13,50.21" transform="translate(-150 -294.36)"/><path class="cls-1" d="M430.55,549.89a66.69,66.69,0,0,0-2.76-14.38" transform="translate(-150 -294.36)"/><path class="cls-1" d="M413.28,689.78a129.73,129.73,0,0,0,69-39.74l0,0h0" transform="translate(-150 -294.36)"/><path class="cls-1" d="M571.71,472.66h0" transform="translate(-150 -294.36)"/><path class="cls-1" d="M566,436.75a68.85,68.85,0,0,1,17.55-39" transform="translate(-150 -294.36)"/><path class="cls-1" d="M583.71,304.93h0" transform="translate(-150 -294.36)"/><path class="cls-1" d="M558.46,313l-.16.07" transform="translate(-150 -294.36)"/><path class="cls-1" d="M513.2,345.11c-.32.33-.63.67-.94,1" transform="translate(-150 -294.36)"/><path class="cls-1" d="M542.94,321l-.83.49" transform="translate(-150 -294.36)"/><path class="cls-1" d="M621.66,302.23c-.37,0-.75-.06-1.12-.07" transform="translate(-150 -294.36)"/><path class="cls-1" d="M329.37,698.93q2.91.32,5.87.52Q332.3,699.22,329.37,698.93Z" transform="translate(-150 -294.36)"/><line class="cls-1" x1="496.72" x2="496.71"/><path class="cls-1" d="M666.77,300.83h0" transform="translate(-150 -294.36)"/><path class="cls-1" d="M686.32,310.44c-1.12-.66-2.24-1.3-3.37-1.92" transform="translate(-150 -294.36)"/><path class="cls-1" d="M499.91,339l-.1.11" transform="translate(-150 -294.36)"/><path class="cls-1" d="M562.37,425.48a76.27,76.27,0,0,1,16.57-29.08" transform="translate(-150 -294.36)"/><line class="cls-1" x1="526.57" y1="13.21" x2="526.56" y2="13.21"/><path class="cls-1" d="M707.91,314.39h0" transform="translate(-150 -294.36)"/><path class="cls-1" d="M585.39,492.62a98.29,98.29,0,0,1,31.37-54" transform="translate(-150 -294.36)"/><path class="cls-1" d="M645.27,306a192.06,192.06,0,0,0-121.58,48.13" transform="translate(-150 -294.36)"/><line class="cls-1" x1="526.57" y1="13.21" x2="526.56" y2="13.21"/><path class="cls-1" d="M575.29,479.52c-3.49-25.44,6-52,27.81-70.27" transform="translate(-150 -294.36)"/><path class="cls-1" d="M618.68,302.44a168.43,168.43,0,0,0-95,38.44" transform="translate(-150 -294.36)"/><path class="cls-1" d="M571.71,472.66h0" transform="translate(-150 -294.36)"/><path class="cls-1" d="M572,463.33a80.92,80.92,0,0,1,29.19-54.78" transform="translate(-150 -294.36)"/><path class="cls-1" d="M707.91,314.39h0" transform="translate(-150 -294.36)"/><path class="cls-1" d="M665.49,300.59h0" transform="translate(-150 -294.36)"/><path class="cls-1" d="M666.77,300.83h0" transform="translate(-150 -294.36)"/><path class="cls-1" d="M542.94,321l-.83.49" transform="translate(-150 -294.36)"/><path class="cls-1" d="M558.46,313l-.16.07" transform="translate(-150 -294.36)"/><path class="cls-1" d="M329.37,698.93q2.91.32,5.87.52Q332.3,699.22,329.37,698.93Zm8.92.72h.06c1.3.08,2.61.14,3.92.19C340.94,699.8,339.62,699.73,338.29,699.65ZM383,697.28q3.29-.54,6.54-1.2Q386.3,696.72,383,697.28Zm19.5-4.26c2.16-.58,4.31-1.2,6.43-1.86Q405.75,692.14,402.53,693ZM212,644.77q2.61,2.51,5.3,4.88C215.52,648.05,213.75,646.43,212,644.77Zm12,10.53c1.08.88,2.17,1.76,3.27,2.6C226.13,657,225,656.18,224,655.3Zm7.67,5.94q5.55,4.1,11.31,7.73Q237.15,665.28,231.63,661.24Zm59.78,30Q284,689,276.72,686.14q7.21,2.85,14.7,5.14ZM427.79,535.51q1.15,7.28,2.76,14.38A66.69,66.69,0,0,0,427.79,535.51Zm52.71,116c-1.79,1.55-3.61,3.06-5.44,4.53l-1.84,1.46q-1.86,1.44-3.72,2.84c-1.23.93-2.47,1.83-3.72,2.72l0,0c-1.26.89-2.53,1.78-3.81,2.64q-3.84,2.6-7.75,5l-2,1.19-1.6.94-2.46,1.42-1.57.87c-.81.45-1.63.89-2.45,1.33l-1.89,1q-3,1.57-6.09,3l-2.05,1c-2.12,1-4.25,1.93-6.4,2.84s-4,1.65-6,2.43c-1.4.53-2.8,1.05-4.21,1.56l-2.11.74-2.05.7a129.73,129.73,0,0,0,69-39.74l0,0h0Z" transform="translate(-150 -294.36)"/><path class="cls-2" d="M430.56,549.92A224.36,224.36,0,0,0,482.29,650l-1.79,1.56c-1.79,1.55-3.61,3.06-5.44,4.53l-1.84,1.46q-1.86,1.44-3.72,2.84c-1.23.92-2.47,1.82-3.72,2.72l0,0c-1.26.89-2.53,1.78-3.81,2.64q-3.84,2.6-7.75,5l-2,1.19-1.6.94-2.46,1.42-1.57.87c-.81.45-1.63.89-2.45,1.33l-1.89,1q-3,1.57-6.09,3l-2.05,1c-2.12,1-4.25,1.93-6.4,2.84s-4,1.65-6,2.43c-1.4.53-2.8,1.05-4.21,1.56l-2.11.74-2.05.7-.07,0c-1.41.47-2.83.92-4.25,1.36q-3.21,1-6.43,1.86l-2.15.57c-1.43.37-2.87.72-4.3,1.07h0c-1.44.34-2.89.66-4.33,1l-2.17.45q-3.27.64-6.54,1.2l-.09,0c-1.43.23-2.85.45-4.28.66s-3,.41-4.51.59l-2.07.24-2.2.23q-3.67.36-7.37.59l-2.16.13h-.13c-.83,0-1.66.08-2.49.11s-1.71.06-2.57.08-1.71,0-2.57.05l-2.52,0q-3.9,0-7.8-.15c-1.33-.05-2.65-.12-4-.2h0c-13.08-2.77-19.89-11.55-21.81-25.52-.07-.48-.13-1-.18-1.46a68.82,68.82,0,0,1-.4-7.65c0-9.81,1.23-19.21,2.86-29.43a186.08,186.08,0,0,0,2.86-31.07c.41-26.16-11-40.06-29.43-44.55v-.82c18.4-4.91,29.84-18,29.43-44.15A170,170,0,0,0,320,492.2c-.06-.42-.11-.85-.18-1.27q-.48-3.49-1.05-7a179.44,179.44,0,0,1-2.86-29c0-22.07,8.18-35.15,32.29-35.15h7.36V397.27H347c-34.75,0-59.28,15.94-59.28,53.55,0,11.45,1.64,22.49,3.27,33.93,1.14,7.94,2.27,15.89,2.84,23.84,0,.42.07.83.1,1.25.21,3.08.33,6.17.33,9.25,0,12.77-3.25,26.83-24.56,29.71l-.47.06h0a64.29,64.29,0,0,1-8.07.48v20.85c1.19,0,2.34,0,3.44.08h.15c25.78,1.41,29.52,18,29.52,30.16,0,11-1.63,22.07-3.27,33.11-.76,5.18-1.53,10.44-2.13,15.71-.05.4-.1.79-.14,1.19h0a155.77,155.77,0,0,0-1,16.61,71.42,71.42,0,0,0,3.74,24.18Q284,689,276.72,686.14q-2.62-1-5.22-2.14c-.81-.35-1.61-.69-2.41-1l-2.4-1.08-2.36-1.09L262.7,680l-1.59-.78q-2.31-1.14-4.57-2.34c-1.66-.88-3.3-1.78-4.94-2.7-1.21-.68-2.4-1.38-3.59-2.08l0,0c-.9-.54-1.8-1.08-2.69-1.63L242.94,669q-5.79-3.69-11.31-7.73l0,0c-1.47-1.08-2.93-2.19-4.37-3.31-1.1-.86-2.19-1.72-3.27-2.6a.27.27,0,0,0-.08-.07c-1.44-1.17-2.87-2.37-4.28-3.58-.77-.66-1.53-1.33-2.29-2-1.79-1.6-3.56-3.22-5.3-4.88l-1.72-1.66c-.57-.55-1.14-1.12-1.71-1.69s-1.06-1.06-1.58-1.6c-1.74-1.78-3.45-3.59-5.13-5.45-.62-.68-1.24-1.38-1.86-2.08-.84-.95-1.66-1.91-2.48-2.87A199.11,199.11,0,0,1,150,500c0-110.46,89.54-200,200-200a199.22,199.22,0,0,1,132.29,50,225.4,225.4,0,0,0-54.5,185.5s0,0,0,0q1.15,7.28,2.76,14.38A0,0,0,0,1,430.56,549.92Z" transform="translate(-150 -294.36)"/><path class="cls-1" d="M513.2,345.11c-.32.33-.63.67-.94,1,.35-.3.69-.61,1-.9Zm107.34-42.95-1.86.28c1-.08,2-.15,3-.21C621.29,302.19,620.91,302.17,620.54,302.16Z" transform="translate(-150 -294.36)"/><path class="cls-3" d="M744.28,530.78c-43.62,36.47-110.16,32.51-148.64-8.83a80.14,80.14,0,0,1-12-16.78l-.9-1.73,1,.9.46.43a95.89,95.89,0,0,0,135.46-6.51,119.87,119.87,0,0,0-8.13-169.33,150,150,0,0,0-25.16-18.49,164.45,164.45,0,0,1,69.61,44.25C804,406.37,798.8,485.21,744.28,530.78Z" transform="translate(-150 -294.36)"/><path class="cls-3" d="M782.21,588.93A123.42,123.42,0,0,1,608,578a98.32,98.32,0,0,1-24.68-66.11,82.85,82.85,0,0,0,10.15,13.37c39.84,42.81,108.75,46.91,153.92,9.15,56.46-47.2,61.86-128.84,12.06-182.36a169.2,169.2,0,0,0-51.56-37.66,192,192,0,0,1,88,56.8A154.27,154.27,0,0,1,782.21,588.93Z" transform="translate(-150 -294.36)"/><path class="cls-3" d="M850,500c0,110.46-89.54,200-200,200a199.22,199.22,0,0,1-132.29-50A224.17,224.17,0,0,0,575,500c0-1.74,0-3.48-.06-5.21,0-.65,0-1.28-.05-1.93h0q-.25-8-1.06-15.9-.69-6.88-1.81-13.61h0a223.23,223.23,0,0,0-6-26.58q-1.66-5.7-3.62-11.27A224.92,224.92,0,0,0,517.71,350a199.24,199.24,0,0,1,101-47.56c1-.08,2-.15,3-.21A133.73,133.73,0,0,1,645.27,306h0a134.45,134.45,0,0,1,57.65,31,108,108,0,0,1,7.33,152.54,86.39,86.39,0,0,1-122,5.86c-1-.89-1.92-1.8-2.84-2.73a67.26,67.26,0,0,1-5-5.63c-.66,2.27-1.23,4.57-1.72,6.87h0c-.33,1.48-.62,3-.87,4.46q-.18,1-.33,2a105.75,105.75,0,0,0,25.28,86.14,132.5,132.5,0,0,0,187,11.73,165.43,165.43,0,0,0,54.86-144.28A200.43,200.43,0,0,1,850,500Z" transform="translate(-150 -294.36)"/></svg>